<?xml version="1.0" encoding="UTF-8"?>
<svg id="_イヤー_1" data-name="レイヤー 1" xmlns="http://www.w3.org/2000/svg" width="881.43" height="361.52" xmlns:xlink="http://www.w3.org/1999/xlink" viewBox="0 0 881.43 361.52">
  <defs>
    <style>
      .cls-1 {
        clip-path: url(#clippath-3);
      }

      .cls-2 {
        fill: #848484;
      }

      .cls-3 {
        clip-path: url(#clippath-2);
      }

      .cls-4 {
        fill: #35b1bd;
      }

      .cls-5 {
        clip-path: url(#clippath-7);
      }

      .cls-6 {
        fill: #01a982;
      }

      .cls-7 {
        clip-path: url(#clippath-8);
      }

      .cls-8 {
        clip-path: url(#clippath-10);
      }

      .cls-9 {
        clip-path: url(#clippath-5);
      }

      .cls-10 {
        clip-path: url(#clippath);
      }

      .cls-11 {
        fill: #0d5265;
      }

      .cls-12 {
        clip-path: url(#clippath-9);
      }

      .cls-13 {
        fill: none;
      }

      .cls-14 {
        clip-path: url(#clippath-11);
      }

      .cls-15 {
        clip-path: url(#clippath-1);
      }
    </style>
    <clipPath id="clippath">
      <polygon points="736.45 138.59 714.09 138.59 717.58 152.27 734.06 152.27 736.45 138.59 736.45 138.59" style="fill: none;"/>
    </clipPath>
    <clipPath id="clippath-1">
      <polygon points="725.13 179.59 733.66 183.91 733.66 200.28 725.13 200.28 725.13 179.59 725.13 179.59" style="fill: none;"/>
    </clipPath>
    <clipPath id="clippath-2">
      <polygon points="307.7 138.98 303.07 129.41 294.34 129.38 295.62 143.7 299.32 146.08 307.7 138.98 307.7 138.98" style="fill: none;"/>
    </clipPath>
    <clipPath id="clippath-3">
      <polygon points="304.42 192.3 282.03 192.3 289.16 259.85 301.8 259.85 304.42 192.3 304.42 192.3" style="fill: none;"/>
    </clipPath>
    <clipPath id="clippath-5">
      <path d="M297.27,146.86l1.31-3.18-36.94-15.21-19.37,47.23,14.63,6.07,3.29-3.16-12.85-5.13,16.79-39.91,33.14,13.3h0Zm-16.67,40.53l-1.52,3.33-10.49-4.37,3.81-2.38,8.19,3.42h0Z" style="fill: #35b1bd;"/>
    </clipPath>
    <clipPath id="clippath-7">
      <path d="M308.5,140.99l-42.92,35.9,4.85,5.67,6.51-4.21,30.86-29.54,2.68,4.74-5.96,6.87-12.71,8.97-7.35,19.62h25s6.5-32.01,6.95-37.81c.45-5.8-7.91-10.2-7.91-10.2h0Z" style="fill: none;"/>
    </clipPath>
    <clipPath id="clippath-8">
      <polygon points="86.46 208.74 71.47 208.74 73.81 217.89 84.86 217.89 86.46 208.74 86.46 208.74" style="fill: none;"/>
    </clipPath>
    <clipPath id="clippath-9">
      <polygon points="78.87 236.15 84.59 239.04 84.59 249.98 78.87 249.98 78.87 236.15 78.87 236.15" style="fill: none;"/>
    </clipPath>
    <clipPath id="clippath-10">
      <polygon points="122.51 186.46 48.93 186.46 48.93 263.55 55.76 263.55 55.76 192.81 116.65 192.81 141.15 293.33 149.07 293.33 122.51 186.46 122.51 186.46" style="fill: none;"/>
    </clipPath>
    <clipPath id="clippath-11">
      <polygon points="65.9 254.37 74.32 254.11 77.38 256.15 105.44 257.17 131.71 286.25 120.74 285.99 98.81 265.59 79.93 265.59 71.52 264.57 65.9 254.37 65.9 254.37" style="fill: none;"/>
    </clipPath>
  </defs>
  <g>
    <path d="M859.97,265.72v-94.67l-49.38-88.24h-131.95v183.03l181.33-.11h0Zm-184.86,3.66V79.26h137.54l50.62,90.45,.23,.4v99.14l-188.38,.12h0Z" style="fill: #848484;"/>
    <polygon points="683.61 279.87 737.19 279.87 737.19 276.26 683.61 276.26 683.61 279.87 683.61 279.87"/>
    <polygon points="795.89 279.87 858.02 279.87 858.02 276.26 795.89 276.26 795.89 279.87 795.89 279.87"/>
    <path d="M825.34,206.73v-35.67l-41.35-70.97h-84.37l.17,106.64h125.55Zm-129.07,3.54l-.18-113.71h89.92l42.61,73.13,.24,.41v40.17h-132.59Z" style="fill: #848484;"/>
    <polygon points="709.06 199.5 712.59 199.5 712.59 175.35 717.09 160.75 748.74 177.73 783.47 168.68 782.59 165.26 749.19 173.96 714.98 155.61 709.06 175.08 709.06 199.5 709.06 199.5" style="fill: #01a982;"/>
    <path d="M714.28,135.8h25.54v-3.54h-21.72c.94-2.95,4.07-5.23,6.98-5.82,4.45-.91,6-.28,6.22,.24,.24,.55,.53,1.23,.53,2.71h3.53c0-2.04-.42-3.19-.81-4.11-1.72-4.02-8.07-2.73-10.16-2.31-4.94,1-10.07,5.41-10.1,11.05v1.78h0Z" style="fill: #01a982;"/>
    <g style="clip-path: url(#clippath);">
      <path d="M725.56,151.61c4.86,0,8.78-3.84,9.33-9.14l.6-8.22-3.52-.26-.6,8.17c-.3,2.93-2.36,5.88-5.84,5.92-3.19-.02-5.46-2.38-5.79-6.02l-.75-8.18-3.51,.32,.75,8.17c.48,5.41,4.3,9.21,9.28,9.24h.05Z"/>
    </g>
    <g style="clip-path: url(#clippath-1);">
      <polygon points="727.74 199.5 731.27 199.5 731.27 176.89 727.74 176.89 727.74 199.5 727.74 199.5" style="fill: #01a982;"/>
    </g>
    <polygon points="799.63 199.02 803.16 199.02 803.16 177.46 793.91 164.99 798.35 151.11 794.99 150.03 785.55 179.52 788.91 180.6 788.91 180.58 792.58 169.13 799.63 178.64 799.63 199.02 799.63 199.02"/>
    <path d="M309.37,128.11h-17.47v-3.06h14.05c-.74-1.63-2.55-2.86-4.25-3.2-3.18-.64-3.77-.05-3.78-.05-.15,.36-.33,.76-.33,1.68h-3.06c0-1.43,.3-2.24,.58-2.88,1.26-2.95,5.73-2.05,7.2-1.75,3.4,.69,7.03,3.63,7.05,7.73v1.54h0Z" style="fill: #01a982;"/>
    <polygon points="300.8 264.13 290.34 264.13 290.34 261.06 300.8 261.06 300.8 264.13 300.8 264.13"/>
    <g style="clip-path: url(#clippath-2);">
      <path d="M303.33,146.44l-1.7-6.63c-1.75,0-3.03-.66-3.82-1.31-1.58-1.29-2.48-3.42-2.46-5.84l.05-6.96,3.06,.02-.05,6.96c-.01,1.46,.49,2.75,1.34,3.45,.7,.57,1.61,.74,2.72,.51l1.43-.3,2.39,9.33-2.96,.76h0Z"/>
    </g>
    <g style="clip-path: url(#clippath-3);">
      <polygon points="300.35 257.29 290.71 257.29 284.77 191.12 287.82 190.84 293.51 254.23 297.4 254.23 299.8 190.33 302.86 190.44 300.35 257.29 300.35 257.29" style="fill: #848484;"/>
    </g>
    <polygon points="265.94 186.27 259.29 185.73 259.54 182.68 264.85 183.11 267.65 180.54 269.72 182.8 265.94 186.27 265.94 186.27"/>
    <g>
      <g/>
      <g>
        <path d="M297.27,146.86l1.31-3.18-36.94-15.21-19.37,47.23,14.63,6.07,3.29-3.16-12.85-5.13,16.79-39.91,33.14,13.3h0Zm-16.67,40.53l-1.52,3.33-10.49-4.37,3.81-2.38,8.19,3.42h0Z" style="fill: #35b1bd;"/>
        <g style="clip-path: url(#clippath-5);">
          <polygon points="279.12 190.29 242.86 175.42 261.95 128.88 298.21 143.75 297.05 146.58 263.62 132.87 246.85 173.75 280.28 187.46 279.12 190.29 279.12 190.29" style="fill: #35b1bd;"/>
        </g>
      </g>
      <g/>
    </g>
    <g style="clip-path: url(#clippath-7);">
      <path d="M308.14,187.87h-22.5l10.26-26.13,2.85,1.12-8.62,21.95h15.36c1.61-10.51,5.25-27.65,5.96-30.95l-3.7-6.76-35.94,30.23,2.82,3.13-2.27,2.05-4.94-5.48,41.22-34.68,6.04,11.04-.12,.56c-.05,.21-4.61,21.36-6.24,32.61l-.19,1.31h0Z" style="fill: #01a982;"/>
    </g>
    <path d="M428.05,276.69c-15.19,0-27.55,12.36-27.55,27.55s12.36,27.55,27.55,27.55,27.55-12.36,27.55-27.55-12.36-27.55-27.55-27.55h0Zm0,58.15c-16.88,0-30.61-13.73-30.61-30.61s13.73-30.61,30.61-30.61,30.61,13.73,30.61,30.61-13.73,30.61-30.61,30.61h0Z"/>
    <path d="M442.16,304.23h-3.06c0-6.09-4.96-11.05-11.05-11.05s-11.05,4.96-11.05,11.05h-3.06c0-7.78,6.33-14.11,14.11-14.11s14.11,6.33,14.11,14.11h0Z"/>
    <g>
      <path d="M492.96,276.69c-15.19,0-27.55,12.36-27.55,27.55s12.36,27.55,27.55,27.55,27.55-12.36,27.55-27.55-12.36-27.55-27.55-27.55h0Zm0,58.15c-16.88,0-30.61-13.73-30.61-30.61s13.73-30.61,30.61-30.61,30.61,13.73,30.61,30.61-13.73,30.61-30.61,30.61h0Z"/>
      <path d="M507.08,304.23h-3.06c0-6.09-4.96-11.05-11.05-11.05s-11.05,4.96-11.05,11.05h-3.06c0-7.78,6.33-14.11,14.11-14.11s14.11,6.33,14.11,14.11h0Z"/>
    </g>
    <g>
      <path d="M766.57,276.69c-15.19,0-27.55,12.36-27.55,27.55s12.36,27.55,27.55,27.55,27.55-12.36,27.55-27.55-12.36-27.55-27.55-27.55h0Zm0,58.15c-16.88,0-30.61-13.73-30.61-30.61s13.73-30.61,30.61-30.61,30.61,13.73,30.61,30.61-13.73,30.61-30.61,30.61h0Z"/>
      <path d="M780.68,304.23h-3.06c0-6.09-4.96-11.05-11.05-11.05s-11.05,4.96-11.05,11.05h-3.06c0-7.78,6.33-14.11,14.11-14.11s14.11,6.33,14.11,14.11h0Z"/>
    </g>
    <polygon points="621.08 269.41 319.58 269.41 319.58 17.68 621.08 17.68 621.08 20.75 322.64 20.75 322.64 266.35 621.08 266.35 621.08 269.41 621.08 269.41" style="fill: #01a982;"/>
    <polygon points="354.04 269.41 655.53 269.41 655.53 17.68 354.04 17.68 354.04 20.75 652.47 20.75 652.47 266.35 354.04 266.35 354.04 269.41 354.04 269.41" style="fill: #01a982;"/>
    <polygon points="390.49 304.23 387.43 304.23 387.43 279.75 287.63 279.75 287.63 266.35 312.45 266.35 312.45 269.41 290.69 269.41 290.69 276.69 390.49 276.69 390.49 304.23 390.49 304.23"/>
    <polygon points="621.08 279.75 519.56 279.75 519.56 276.69 621.08 276.69 621.08 279.75 621.08 279.75"/>
    <polygon points="362.17 243.72 354.04 243.72 354.04 240.66 362.17 240.66 362.17 243.72 362.17 243.72" style="fill: #0d5265;"/>
    <polygon points="359.64 246.84 356.58 246.84 356.58 242.19 359.64 242.19 359.64 246.84 359.64 246.84" style="fill: #0d5265;"/>
    <polygon points="413.95 243.72 405.82 243.72 405.82 240.66 413.95 240.66 413.95 243.72 413.95 243.72" style="fill: #0d5265;"/>
    <polygon points="411.42 246.84 408.36 246.84 408.36 242.19 411.42 242.19 411.42 246.84 411.42 246.84" style="fill: #0d5265;"/>
    <g>
      <polygon points="465.73 243.72 457.6 243.72 457.6 240.66 465.73 240.66 465.73 243.72 465.73 243.72" style="fill: #0d5265;"/>
      <polygon points="463.2 246.84 460.14 246.84 460.14 242.19 463.2 242.19 463.2 246.84 463.2 246.84" style="fill: #0d5265;"/>
    </g>
    <g>
      <polygon points="517.51 243.72 509.38 243.72 509.38 240.66 517.51 240.66 517.51 243.72 517.51 243.72" style="fill: #0d5265;"/>
      <polygon points="514.98 246.84 511.92 246.84 511.92 242.19 514.98 242.19 514.98 246.84 514.98 246.84" style="fill: #0d5265;"/>
    </g>
    <polygon points="569.29 243.72 561.16 243.72 561.16 240.66 569.29 240.66 569.29 243.72 569.29 243.72" style="fill: #0d5265;"/>
    <polygon points="566.76 246.84 563.7 246.84 563.7 242.19 566.76 242.19 566.76 246.84 566.76 246.84" style="fill: #0d5265;"/>
    <polygon points="621.08 243.72 612.94 243.72 612.94 240.66 621.08 240.66 621.08 243.72 621.08 243.72" style="fill: #0d5265;"/>
    <polygon points="618.54 246.84 615.48 246.84 615.48 242.19 618.54 242.19 618.54 246.84 618.54 246.84" style="fill: #0d5265;"/>
    <path d="M113.1,321.95h-41.16v-1.53c0-10.32-8.4-18.72-18.72-18.72s-18.72,8.4-18.72,18.72v1.53h-13.42v-54.36l67.18-.54,12.12,12.12,.18,10.89h37.2v3.06h-40.21l-.22-12.66-10.34-10.34-62.86,.5v48.26h7.35c.79-11.3,10.23-20.25,21.73-20.25s20.94,8.95,21.73,20.25h38.15v3.06h0Z" style="fill: #01a982;"/>
    <path d="M134.94,304.41c-7.55,0-13.69,6.14-13.69,13.69s6.14,13.69,13.69,13.69,13.69-6.14,13.69-13.69-6.14-13.69-13.69-13.69h0Zm0,30.44c-9.24,0-16.75-7.51-16.75-16.75s7.51-16.75,16.75-16.75,16.75,7.51,16.75,16.75-7.51,16.75-16.75,16.75h0Z"/>
    <path d="M53.22,309.07c-6.26,0-11.36,5.1-11.36,11.36s5.1,11.36,11.36,11.36,11.36-5.1,11.36-11.36-5.09-11.36-11.36-11.36h0Zm0,25.78c-7.95,0-14.42-6.47-14.42-14.42s6.47-14.42,14.42-14.42,14.42,6.47,14.42,14.42-6.47,14.42-14.42,14.42h0Z"/>
    <polygon points="70.81 249.46 67.75 249.46 67.82 232.69 71.86 219.61 95.05 232.02 117.3 226.24 118.07 229.2 94.66 235.28 73.69 224.06 70.81 233.37 70.81 249.46 70.81 249.46" style="fill: #01a982;"/>
    <path d="M88.72,207.23h-17.47v-1.54c.03-4.1,3.65-7.04,7.06-7.73,1.47-.3,5.94-1.2,7.2,1.75,.28,.64,.57,1.45,.57,2.88h-3.06c0-.92-.17-1.32-.32-1.67,0,0-.6-.6-3.78,.04-1.7,.34-3.5,1.58-4.25,3.2h14.05v3.06h0Z" style="fill: #01a982;"/>
    <path d="M159.72,316.42h19.38v-124.93h-19.38v124.93h0Zm22.45,3.06h-25.51V188.42h25.51v131.06h0Z" style="fill: #848484;"/>
    <polygon points="251.76 269.41 180.64 269.41 180.64 266.35 251.76 266.35 251.76 269.41 251.76 269.41" style="fill: #848484;"/>
    <polygon points="173.62 307.54 170.56 307.54 170.56 196.99 173.62 196.99 173.62 307.54 173.62 307.54" style="fill: #848484;"/>
    <path d="M143.06,318.09h-3.06c0-2.79-2.27-5.05-5.06-5.05s-5.05,2.27-5.05,5.05h-3.06c0-4.48,3.64-8.11,8.11-8.11s8.12,3.64,8.12,8.11h0Z"/>
    <path d="M59.16,320.42h-3.06c0-1.59-1.29-2.88-2.88-2.88s-2.88,1.29-2.88,2.88h-3.06c0-3.27,2.66-5.94,5.94-5.94s5.94,2.66,5.94,5.94h0Z"/>
    <path d="M189.83,259.21h34.6v-44.18h-34.6v44.18h0Zm37.67,3.06h-40.73v-50.3h40.73v50.3h0Z" style="fill: #35b1bd;"/>
    <path d="M233.2,259.21h34.6v-44.18h-34.6v44.18h0Zm37.67,3.06h-40.73v-50.3h40.73v50.3h0Z" style="fill: #35b1bd;"/>
    <path d="M189.83,205.98h34.6v-44.18h-34.6v44.18h0Zm37.67,3.06h-40.73v-50.3h40.73v50.3h0Z" style="fill: #35b1bd;"/>
    <g style="clip-path: url(#clippath-8);">
      <path d="M79.16,217.79h-.04c-3.53-.02-6.23-2.69-6.57-6.5l-.5-5.46,3.05-.28,.5,5.46c.2,2.25,1.59,3.7,3.54,3.71h.02c2.08,0,3.36-1.85,3.55-3.68l.4-5.41,3.05,.22-.4,5.46c-.39,3.77-3.16,6.47-6.6,6.47h0Z"/>
    </g>
    <g style="clip-path: url(#clippath-9);">
      <polygon points="83.34 249.46 80.28 249.46 80.28 234.35 83.34 234.35 83.34 249.46 83.34 249.46" style="fill: #01a982;"/>
    </g>
    <g style="clip-path: url(#clippath-10);">
      <polygon points="142.91 294.86 118.2 191.48 54.48 191.48 54.48 262.85 51.42 262.85 51.42 188.42 120.61 188.42 145.89 294.15 142.91 294.86 142.91 294.86" style="fill: #848484;"/>
    </g>
    <g style="clip-path: url(#clippath-11);">
      <polygon points="126.33 288.27 101.53 262.34 74.69 262.34 68.08 253.84 70.49 251.96 76.19 259.28 102.84 259.28 128.55 286.15 126.33 288.27 126.33 288.27" style="fill: #848484;"/>
    </g>
    <polygon points="354.04 100.09 354.04 192.3 378.73 192.3 378.73 140.13 415.43 192.3 435.98 192.3 435.98 100.09 412.92 100.09 412.92 151.42 377.16 100.09 354.04 100.09" style="fill: #01a982;"/>
    <path d="M479.91,123.56l-.64-.02-.64,.02c-15.54,.5-32.06,13.32-32.06,36.12s16.69,35.68,32.4,35.91h.6c15.7-.23,32.4-12.9,32.4-35.91s-16.52-35.63-32.06-36.12Zm-.64,52.04s-12.69-.19-12.69-15.92,12.69-16.13,12.69-16.13c0,0,12.69,.4,12.69,16.13s-12.69,15.92-12.69,15.92Z" style="fill: #01a982;"/>
    <circle cx="532.9" cy="180.71" r="13.83" style="fill: #01a982;"/>
    <polygon points="602.62 172.94 602.62 101.32 579.7 101.32 557.15 115.53 557.15 137.13 579.7 122.93 579.7 172.94 557.15 172.94 557.15 192.3 579.7 192.3 602.62 192.3 621.08 192.3 621.08 172.94 602.62 172.94" style="fill: #01a982;"/>
  </g>
  <rect x="5.47" y="339.6" width="872.29" height="3" style="fill: #848484;"/>
</svg>
