<?xml version="1.0" encoding="UTF-8"?>
<svg id="_イヤー_1" data-name="レイヤー 1" xmlns="http://www.w3.org/2000/svg" width="1000" height="605.51" xmlns:xlink="http://www.w3.org/1999/xlink" viewBox="0 0 1000 605.51">
  <defs>
    <style>
      .cls-1 {
        letter-spacing: -.04em;
      }

      .cls-2 {
        letter-spacing: .12em;
      }

      .cls-3 {
        clip-path: url(#clippath-13);
      }

      .cls-4 {
        letter-spacing: .01em;
      }

      .cls-5 {
        letter-spacing: .04em;
      }

      .cls-6 {
        clip-path: url(#clippath-3);
      }

      .cls-7 {
        letter-spacing: -.07em;
      }

      .cls-8, .cls-9, .cls-10 {
        fill: #fff;
      }

      .cls-11 {
        letter-spacing: -.07em;
      }

      .cls-12 {
        letter-spacing: -.04em;
      }

      .cls-13, .cls-14 {
        font-size: 18.34px;
      }

      .cls-13, .cls-14, .cls-10, .cls-15 {
        font-family: AxisProN-Heavy-90ms-RKSJ-H, AXIS ProN;
      }

      .cls-13, .cls-14, .cls-16, .cls-17, .cls-18, .cls-15, .cls-19 {
        fill: #221815;
      }

      .cls-20 {
        letter-spacing: .06em;
      }

      .cls-21 {
        fill: #221f20;
      }

      .cls-22 {
        letter-spacing: -.4em;
      }

      .cls-23 {
        letter-spacing: .03em;
      }

      .cls-24 {
        letter-spacing: .02em;
      }

      .cls-25 {
        clip-path: url(#clippath-2);
      }

      .cls-26 {
        letter-spacing: -.06em;
      }

      .cls-27 {
        letter-spacing: -.06em;
      }

      .cls-14, .cls-28 {
        letter-spacing: .02em;
      }

      .cls-29 {
        letter-spacing: .1em;
      }

      .cls-30 {
        letter-spacing: .02em;
      }

      .cls-31 {
        letter-spacing: -.02em;
      }

      .cls-32 {
        clip-path: url(#clippath-14);
      }

      .cls-33 {
        letter-spacing: -.1em;
      }

      .cls-9 {
        font-size: 16.69px;
      }

      .cls-9, .cls-17, .cls-19 {
        font-family: MetricHPE-Bold, MetricHPE;
      }

      .cls-34 {
        letter-spacing: .01em;
      }

      .cls-35 {
        letter-spacing: .05em;
      }

      .cls-36 {
        letter-spacing: .02em;
      }

      .cls-37 {
        letter-spacing: 0em;
      }

      .cls-38 {
        letter-spacing: 0em;
      }

      .cls-39 {
        letter-spacing: -.14em;
      }

      .cls-40 {
        letter-spacing: -.03em;
      }

      .cls-41 {
        clip-path: url(#clippath-4);
      }

      .cls-42 {
        letter-spacing: .07em;
      }

      .cls-43 {
        letter-spacing: 0em;
      }

      .cls-44 {
        fill: #040000;
      }

      .cls-45 {
        clip-path: url(#clippath-12);
      }

      .cls-46 {
        stroke: #bfc3c5;
        stroke-width: 2.26px;
      }

      .cls-46, .cls-47 {
        fill: none;
      }

      .cls-48 {
        letter-spacing: -.03em;
      }

      .cls-49 {
        clip-path: url(#clippath-7);
      }

      .cls-50 {
        letter-spacing: .02em;
      }

      .cls-51 {
        fill: #f0886b;
      }

      .cls-52 {
        letter-spacing: 0em;
      }

      .cls-53 {
        letter-spacing: -.06em;
      }

      .cls-54 {
        letter-spacing: -.11em;
      }

      .cls-55 {
        letter-spacing: -.08em;
      }

      .cls-56 {
        letter-spacing: 0em;
      }

      .cls-57 {
        letter-spacing: .09em;
      }

      .cls-58 {
        clip-path: url(#clippath-8);
      }

      .cls-59 {
        letter-spacing: -.03em;
      }

      .cls-60 {
        letter-spacing: .05em;
      }

      .cls-61 {
        letter-spacing: .01em;
      }

      .cls-62 {
        letter-spacing: -.04em;
      }

      .cls-63 {
        fill: #005167;
      }

      .cls-64 {
        letter-spacing: -.16em;
      }

      .cls-65 {
        letter-spacing: .07em;
      }

      .cls-66 {
        letter-spacing: -.05em;
      }

      .cls-67 {
        letter-spacing: .02em;
      }

      .cls-68 {
        letter-spacing: 0em;
      }

      .cls-69 {
        clip-path: url(#clippath-10);
      }

      .cls-70 {
        letter-spacing: .05em;
      }

      .cls-71 {
        fill: #14a17c;
      }

      .cls-72 {
        letter-spacing: -.02em;
      }

      .cls-73 {
        letter-spacing: .04em;
      }

      .cls-74 {
        letter-spacing: 0em;
      }

      .cls-75 {
        fill: #15a17d;
      }

      .cls-76 {
        letter-spacing: -.45em;
      }

      .cls-77 {
        letter-spacing: .03em;
      }

      .cls-78 {
        letter-spacing: .02em;
      }

      .cls-79 {
        letter-spacing: -.02em;
      }

      .cls-80 {
        fill: #54bdb4;
      }

      .cls-81 {
        letter-spacing: .02em;
      }

      .cls-82 {
        fill: #ef801a;
      }

      .cls-83 {
        letter-spacing: .01em;
      }

      .cls-10 {
        font-size: 12.84px;
      }

      .cls-84 {
        letter-spacing: 0em;
      }

      .cls-85 {
        letter-spacing: .02em;
      }

      .cls-86 {
        letter-spacing: -.03em;
      }

      .cls-87 {
        letter-spacing: -.1em;
      }

      .cls-88 {
        letter-spacing: -.05em;
      }

      .cls-89 {
        letter-spacing: 0em;
      }

      .cls-90 {
        clip-path: url(#clippath-5);
      }

      .cls-91 {
        clip-path: url(#clippath);
      }

      .cls-92 {
        letter-spacing: -.47em;
      }

      .cls-93 {
        letter-spacing: .05em;
      }

      .cls-94 {
        fill: #85549f;
      }

      .cls-16 {
        font-family: AxisProN-Regular-90ms-RKSJ-H, AXIS ProN;
        font-size: 14.67px;
      }

      .cls-95 {
        letter-spacing: 0em;
      }

      .cls-96 {
        letter-spacing: -.02em;
      }

      .cls-97 {
        fill: #80746e;
      }

      .cls-98 {
        fill: #58479a;
      }

      .cls-99 {
        fill: #62c3cd;
      }

      .cls-100 {
        letter-spacing: 0em;
      }

      .cls-101 {
        letter-spacing: .01em;
      }

      .cls-17 {
        font-size: 20px;
      }

      .cls-18 {
        font-family: MetricHPE-Regular, MetricHPE;
        font-size: 19.07px;
      }

      .cls-102 {
        clip-path: url(#clippath-9);
      }

      .cls-15 {
        font-size: 18.34px;
      }

      .cls-103 {
        letter-spacing: .02em;
      }

      .cls-104 {
        letter-spacing: .07em;
      }

      .cls-105 {
        letter-spacing: .05em;
      }

      .cls-106 {
        letter-spacing: .07em;
      }

      .cls-107 {
        letter-spacing: .01em;
      }

      .cls-108 {
        letter-spacing: -.08em;
      }

      .cls-19 {
        font-size: 20px;
      }

      .cls-109 {
        letter-spacing: -.04em;
      }

      .cls-110 {
        letter-spacing: -.08em;
      }

      .cls-111 {
        letter-spacing: -.05em;
      }

      .cls-112 {
        letter-spacing: .01em;
      }

      .cls-113 {
        letter-spacing: .06em;
      }

      .cls-114 {
        letter-spacing: .05em;
      }

      .cls-115 {
        letter-spacing: -.11em;
      }

      .cls-116 {
        letter-spacing: .01em;
      }

      .cls-117 {
        fill: #f4c31f;
      }

      .cls-118 {
        letter-spacing: .03em;
      }

      .cls-119 {
        letter-spacing: .09em;
      }

      .cls-120 {
        letter-spacing: -.14em;
      }

      .cls-121 {
        fill: #bfc3c5;
      }

      .cls-122 {
        clip-path: url(#clippath-11);
      }

      .cls-123 {
        letter-spacing: -.01em;
      }

      .cls-124 {
        fill: #0a5063;
      }

      .cls-125 {
        letter-spacing: -.09em;
      }

      .cls-126 {
        letter-spacing: -.5em;
      }

      .cls-127 {
        letter-spacing: -.05em;
      }

      .cls-128 {
        letter-spacing: -.07em;
      }

      .cls-129 {
        letter-spacing: -.05em;
      }

      .cls-130 {
        letter-spacing: -.16em;
      }

      .cls-131 {
        clip-path: url(#clippath-6);
      }

      .cls-132 {
        letter-spacing: .04em;
      }

      .cls-133 {
        clip-path: url(#clippath-1);
      }

      .cls-134 {
        letter-spacing: -.53em;
      }

      .cls-135 {
        letter-spacing: -.1em;
      }

      .cls-136 {
        letter-spacing: 0em;
      }

      .cls-137 {
        letter-spacing: .06em;
      }

      .cls-138 {
        letter-spacing: .02em;
      }
    </style>
    <clipPath id="clippath">
      <polygon points="918.82 471.89 949.26 471.89 948.94 461.78 925.73 461.78 925.73 456.73 948.32 456.73 948.32 448.51 925.73 448.51 918.82 448.2 918.82 471.89" style="fill: none;"/>
    </clipPath>
    <clipPath id="clippath-1">
      <polygon points="63.64 110.18 63.64 113.22 69.73 113.22 76.84 120.16 76.84 115.62 71.45 110.18 63.64 110.18" style="fill: none;"/>
    </clipPath>
    <clipPath id="clippath-2">
      <polygon points="34.39 104.4 34.39 122.16 37.2 125.75 37.2 130.89 44.45 123.41 61.59 123.41 61.59 104.4 34.39 104.4" style="fill: none;"/>
    </clipPath>
    <clipPath id="clippath-3">
      <polygon points="56.22 440.76 52.05 457.94 58.85 482.38 68.22 479.78 61.54 440.76 56.22 440.76" style="fill: none;"/>
    </clipPath>
    <clipPath id="clippath-4">
      <rect x="18.22" y="440.76" width="51.11" height="44.51" style="fill: none;"/>
    </clipPath>
    <clipPath id="clippath-5">
      <polygon points="50.12 388.05 47.88 395.24 54.69 400.46 56.22 386.9 50.12 388.05" style="fill: none;"/>
    </clipPath>
    <clipPath id="clippath-6">
      <polygon points="377.79 361.06 378.72 419.61 397.22 419.61 396.28 361.06 377.79 361.06" style="fill: none;"/>
    </clipPath>
    <clipPath id="clippath-7">
      <polygon points="428.79 311.73 435.37 318.02 436.71 319.5 444.87 321.61 444.67 312.9 435.93 311.1 428.79 311.73" style="fill: none;"/>
    </clipPath>
    <clipPath id="clippath-8">
      <path d="M433.03,329.88l2.42,1.33,6.19-5.55-3.61-7.03c-1.95,1.36-4.15-.07-6.11-1.51l1.11,12.76Z" style="fill: none;"/>
    </clipPath>
    <clipPath id="clippath-9">
      <rect x="432.79" y="359.91" width="12.21" height="20.34" style="fill: none;"/>
    </clipPath>
    <clipPath id="clippath-10">
      <rect x="432.79" y="401.91" width="12.21" height="18.22" style="fill: none;"/>
    </clipPath>
    <clipPath id="clippath-11">
      <polygon points="381.52 314.93 381.78 323.46 389.64 320.96 390.87 319.45 396.19 316.36 391.5 312.26 381.52 314.93" style="fill: none;"/>
    </clipPath>
    <clipPath id="clippath-12">
      <path d="M388.32,320.19l-2.84,5.82,4.48,6.99,3.81-2.08,.43-11.91c-2.39,1.06-4.23,1.54-5.89,1.18" style="fill: none;"/>
    </clipPath>
    <clipPath id="clippath-13">
      <polygon points="377.38 334.37 379.72 359.04 395.73 359.39 396.28 355.84 390.38 354.19 390.16 352.04 411.67 362.45 413.74 354.32 396.41 343.72 385.03 327.14 377.38 334.37" style="fill: none;"/>
    </clipPath>
    <clipPath id="clippath-14">
      <polygon points="844.25 56.55 841.29 64.09 846.91 61.1 853.61 59.84 854.39 55.76 849.71 53.72 844.25 56.55" style="fill: none;"/>
    </clipPath>
  </defs>
  <path d="M977.61,453.11v-45.45l-38.49-23.9v-3.52h-36.06v33.92l-18.11-18.23-23,23.15v29.26l-23.51-.06-13.52,12.68,13.93,12.65h2.56v20.19h15.35v-20.18h5.2v19.49h15.35v-26.57h15.24v2.63h-7.45v23.81l17.96-.08v.21h15.35v-.19h4.13v.17h15.35v-14.78h7.58v14.7h15.35v-24.53h6.67v24.32h15.35v-39.69h-5.23Zm-29.94-21.91h6.2v-20.2l8.4,5.21v36.9h-1.44v-8.71l-13.16-13.2Zm-27.42-6.28v14.05l-1.83,1.84v-15.89h1.83Zm-28.37-.23h-13.82l6.91-6.96,6.91,6.96Z" style="fill: #fff;"/>
  <rect x="847.84" y="470.06" width="2.51" height="17.32" style="fill: #f4c31f;"/>
  <rect x="917.23" y="399.46" width="2.51" height="3.89" style="fill: #ef801a;"/>
  <rect x="917.23" y="399.46" width="2.51" height="3.89" style="fill: #ef801a;"/>
  <rect x="922.93" y="399.46" width="2.51" height="3.89" style="fill: #ef801a;"/>
  <rect x="922.93" y="399.46" width="2.51" height="3.89" style="fill: #ef801a;"/>
  <rect x="917.23" y="399.46" width="2.51" height="3.89" style="fill: #ef801a;"/>
  <rect x="917.23" y="399.46" width="2.51" height="3.89" style="fill: #ef801a;"/>
  <rect x="922.93" y="399.46" width="2.51" height="3.89" style="fill: #ef801a;"/>
  <rect x="922.93" y="399.46" width="2.51" height="3.89" style="fill: #ef801a;"/>
  <rect x="917.23" y="399.46" width="2.51" height="3.89" style="fill: #ef801a;"/>
  <rect x="917.23" y="399.46" width="2.51" height="3.89" style="fill: #ef801a;"/>
  <rect x="922.93" y="399.46" width="2.51" height="3.89" style="fill: #ef801a;"/>
  <rect x="922.93" y="399.46" width="2.51" height="3.89" style="fill: #ef801a;"/>
  <rect x="917.23" y="399.46" width="2.51" height="3.89" style="fill: #ef801a;"/>
  <rect x="922.93" y="399.46" width="2.51" height="3.89" style="fill: #ef801a;"/>
  <rect x="917.23" y="399.46" width="2.51" height="3.89" style="fill: #ef801a;"/>
  <rect x="917.23" y="399.46" width="2.51" height="3.89" style="fill: #ef801a;"/>
  <rect x="922.93" y="399.46" width="2.51" height="3.89" style="fill: #ef801a;"/>
  <rect x="922.93" y="399.46" width="2.51" height="3.89" style="fill: #ef801a;"/>
  <rect x="917.23" y="399.46" width="2.51" height="3.89" style="fill: #ef801a;"/>
  <rect x="917.23" y="399.46" width="2.51" height="3.89" style="fill: #ef801a;"/>
  <rect x="922.93" y="399.46" width="2.51" height="3.89" style="fill: #ef801a;"/>
  <rect x="922.93" y="399.46" width="2.51" height="3.89" style="fill: #ef801a;"/>
  <rect x="917.23" y="399.46" width="2.51" height="3.89" style="fill: #ef801a;"/>
  <rect x="917.23" y="399.46" width="2.51" height="3.89" style="fill: #ef801a;"/>
  <rect x="922.93" y="399.46" width="2.51" height="3.89" style="fill: #ef801a;"/>
  <rect x="922.93" y="399.46" width="2.51" height="3.89" style="fill: #ef801a;"/>
  <rect x="917.23" y="399.46" width="2.51" height="3.89" style="fill: #ef801a;"/>
  <rect x="922.93" y="406.88" width="2.51" height="3.89" style="fill: #ef801a;"/>
  <rect x="922.93" y="406.88" width="2.51" height="3.89" style="fill: #ef801a;"/>
  <rect x="917.28" y="406.88" width="2.51" height="3.89" style="fill: #ef801a;"/>
  <rect x="922.93" y="406.88" width="2.51" height="3.89" style="fill: #ef801a;"/>
  <rect x="922.9" y="414.54" width="2.51" height="3.89" style="fill: #ef801a;"/>
  <rect x="917.3" y="414.6" width="2.51" height="3.9" style="fill: #ef801a;"/>
  <rect x="926.67" y="430.1" width="2.51" height="10.98" style="fill: #f0886b;"/>
  <rect x="926.67" y="430.1" width="2.51" height="10.98" style="fill: #f0886b;"/>
  <rect x="926.67" y="430.1" width="2.51" height="10.98" style="fill: #f0886b;"/>
  <rect x="926.67" y="430.1" width="2.51" height="10.98" style="fill: #f0886b;"/>
  <rect x="926.67" y="430.1" width="2.51" height="10.98" style="fill: #f0886b;"/>
  <rect x="926.67" y="430.1" width="2.51" height="10.98" style="fill: #f0886b;"/>
  <rect x="926.67" y="430.1" width="2.51" height="10.98" style="fill: #f0886b;"/>
  <rect x="926.67" y="430.1" width="2.51" height="10.98" style="fill: #f0886b;"/>
  <rect x="926.67" y="430.1" width="2.51" height="10.98" style="fill: #f0886b;"/>
  <rect x="926.67" y="430.1" width="2.51" height="12.37" style="fill: #85549f;"/>
  <rect x="928.97" y="475.69" width="2.51" height="10.98" style="fill: #ef801a;"/>
  <polygon points="954.41 486.59 951.9 486.59 951.9 448.1 937.84 433.99 924.08 447.79 924.06 486.51 921.55 486.51 921.57 446.73 937.84 430.42 954.41 447.05 954.41 486.59" style="fill: #0a5063;"/>
  <polygon points="971.2 451.84 968.69 451.84 968.69 412.64 947.46 399.46 947.46 424.78 944.95 424.78 944.95 394.93 971.2 411.23 971.2 451.84" style="fill: #54bdb4;"/>
  <polygon points="976.43 486.38 973.92 486.38 973.92 462.05 957.81 462.05 957.81 459.53 976.43 459.53 976.43 486.38" style="fill: #ef801a;"/>
  <path d="M857.38,467.2h-16.03l-6.94-6.32,6.59-6.18,16.3,.04,.09,12.45Zm-15.07-2.54h12.54l-.06-7.4-12.82-.03-3.86,3.62,4.2,3.81Z" style="fill: #15a17d;"/>
  <polygon points="912 486.69 909.49 486.69 909.49 386.66 932.71 386.66 932.71 424.57 930.2 424.57 930.2 389.19 912 389.19 912 486.69" style="fill: #58479a;"/>
  <polygon points="870.9 486.69 868.39 486.69 868.39 421.73 884.97 405.04 901.49 421.68 901.49 486.48 898.98 486.48 898.98 422.72 884.97 408.61 870.9 422.78 870.9 486.69" style="fill: #f4c31f;"/>
  <rect x="891.4" y="431.1" width="2.51" height="6.63" style="fill: #54bdb4;"/>
  <rect x="891.4" y="431.1" width="2.51" height="6.63" style="fill: #54bdb4;"/>
  <rect x="883.57" y="431.1" width="2.51" height="6.63" style="fill: #54bdb4;"/>
  <rect x="875.61" y="431.1" width="2.51" height="6.63" style="fill: #54bdb4;"/>
  <rect x="875.61" y="431.1" width="2.51" height="6.63" style="fill: #54bdb4;"/>
  <rect x="875.61" y="442.9" width="2.51" height="6.63" style="fill: #54bdb4;"/>
  <rect x="875.61" y="442.9" width="2.51" height="6.63" style="fill: #54bdb4;"/>
  <rect x="891.4" y="442.9" width="2.51" height="6.63" style="fill: #54bdb4;"/>
  <rect x="891.4" y="442.9" width="2.51" height="6.63" style="fill: #54bdb4;"/>
  <rect x="883.57" y="442.9" width="2.51" height="6.63" style="fill: #54bdb4;"/>
  <rect x="875.61" y="453.49" width="2.51" height="6.63" style="fill: #54bdb4;"/>
  <rect x="875.61" y="453.49" width="2.51" height="6.63" style="fill: #54bdb4;"/>
  <rect x="891.4" y="453.49" width="2.51" height="6.63" style="fill: #54bdb4;"/>
  <rect x="891.4" y="453.49" width="2.51" height="6.63" style="fill: #54bdb4;"/>
  <rect x="883.57" y="453.49" width="2.51" height="6.63" style="fill: #54bdb4;"/>
  <rect x="891.53" y="475.58" width="2.51" height="10.98" style="fill: #15a17d;"/>
  <g style="clip-path: url(#clippath);">
    <rect x="928.79" y="450.95" width="2.51" height="18.01" style="fill: #040000;"/>
    <rect x="936.79" y="450.95" width="2.51" height="18.01" style="fill: #040000;"/>
    <rect x="944.63" y="450.95" width="2.51" height="18.01" style="fill: #040000;"/>
  </g>
  <rect x="162.88" y="133.27" width="232.26" height="34.51" style="fill: #005167;"/>
  <text transform="translate(226.3 156.98)" style="fill: #fff; font-size: 14px;"><tspan x="3" y="0" style="letter-spacing: .01em;">HPE DirectPlus</tspan></text>
  <text transform="translate(472.24 299.53)" style="fill: #221815; font-weight: bold; font-size: 18.34px;"><tspan x="3" y="5" style="letter-spacing: .01em;">審査</tspan></text>
  <rect x="526.63" y="133.27" width="232.26" height="34.51" style="fill: #62c3cd;"/>
  <text transform="translate(564.18 156.47)" style="fill: #fff; font-size: 14px;"><tspan x="-8" y="0" style="letter-spacing: .01em;">ファイナンシャルサービス</tspan></text>
  <path d="M917.1,541.16H111.9c-60.83,0-92.66-55.72-92.66-110.76s32.07-106.87,93.36-106.87H883.66c62.35,0,90.74-53.49,90.74-103.19,0-53.04-27.52-106.56-89.01-106.56H73.38v-3.68H885.39c64.01,0,92.66,55.37,92.66,110.24,0,51.47-29.54,106.87-94.39,106.87H112.59c-58.89,0-89.7,51.91-89.7,103.19s30.57,107.08,89.01,107.08H917.1v3.68Z" style="fill: #bfc3c5;"/>
  <path d="M652.55,112.47c0,5.45-4.39,9.86-9.8,9.86s-9.79-4.42-9.79-9.86,4.38-9.86,9.79-9.86,9.8,4.42,9.8,9.86" style="fill: #62c3cd;"/>
  <path d="M503.17,325.1c0,5.45-4.39,9.86-9.8,9.86s-9.79-4.42-9.79-9.86,4.38-9.86,9.79-9.86,9.8,4.42,9.8,9.86" style="fill: #62c3cd;"/>
  <path d="M56.81,148.46c19.74,0,35.74-16.11,35.74-35.99s-16-35.98-35.74-35.98-35.74,16.11-35.74,35.98,16,35.99,35.74,35.99" style="fill: #fff;"/>
  <path d="M56.81,148.46c19.74,0,35.74-16.11,35.74-35.99s-16-35.98-35.74-35.98-35.74,16.11-35.74,35.98,16,35.99,35.74,35.99Z" style="fill: none; stroke: #bfc3c5; stroke-width: 2.26px;"/>
  <g style="clip-path: url(#clippath-1);">
    <polygon points="76.9 119.82 70.01 112.89 64.03 112.89 64.03 110.49 71 110.49 78.58 118.12 76.9 119.82" style="fill: #54bdb4;"/>
  </g>
  <polygon points="79.22 111.69 76.84 111.69 76.84 96.46 55.57 96.46 55.57 101.7 53.19 101.7 53.19 94.06 79.22 94.06 79.22 111.69" style="fill: #54bdb4;"/>
  <g style="clip-path: url(#clippath-2);">
    <polygon points="37.28 129.83 35.6 128.13 43.18 120.5 58.6 120.5 58.6 107.28 37.33 107.28 37.33 121.7 34.95 121.7 34.95 104.89 60.99 104.89 60.99 122.9 44.16 122.9 37.28 129.83" style="fill: #040000;"/>
  </g>
  <path d="M288.8,112.47c0,5.45-4.39,9.86-9.8,9.86s-9.79-4.42-9.79-9.86,4.38-9.86,9.79-9.86,9.8,4.42,9.8,9.86" style="fill: #005167;"/>
  <text transform="translate(611.21 249.67)" style="fill: #221815; font-weight: bold; font-size: 20px;"><tspan x="0" y="0" style="letter-spacing: .01em;">3.お申込み</tspan></text>
  <text transform="translate(610.92 273.12)" style="fill: #221815; font-size: 14.67px;"><tspan x="0" y="0" style="letter-spacing: .01em;">お申込みの際は、お客様情報をご提出いただき</tspan></text>
  <text transform="translate(610.48 300.06)" style="fill: #221815; font-size: 14.67px;"><tspan x="0" y="-5" style="letter-spacing: .01em;">ます。</tspan></text>
  <g>
    <path d="M776.9,325.1c0,5.45-4.39,9.86-9.8,9.86s-9.79-4.42-9.79-9.86,4.38-9.86,9.79-9.86,9.8,4.42,9.8,9.86" style="fill: #62c3cd;"/>
    <rect x="650.97" y="345.9" width="232.26" height="34.51" style="fill: #62c3cd;"/>
  </g>
  <text transform="translate(688.53 369.1)" style="fill: #fff; font-size: 14px;"><tspan x="-8" y="0" style="letter-spacing: .01em;">ファイナンシャルサービス</tspan></text>
  <text transform="translate(78.91 249.67)" style="fill: #221815; font-weight: bold; font-size: 20px;"><tspan x="0" y="0" style="letter-spacing: .01em;">4.ご契約締結</tspan></text>
  <text transform="translate(78.9 273.13)" style="fill: #221815; font-size: 14.67px;"><tspan x="0" y="0" style="letter-spacing: .01em;">審査後、日本HPファイナンシャルサービスと</tspan></text>
  <text transform="translate(78.61 300.06)" style="fill: #221815; font-size: 14.67px;"><tspan x="0" y="-5">お客様の間で契約を締結いたします。</tspan></text>
  <g>
    <path d="M244.59,325.1c0,5.45-4.39,9.86-9.8,9.86s-9.79-4.42-9.79-9.86,4.38-9.86,9.79-9.86,9.8,4.42,9.8,9.86" style="fill: #62c3cd;"/>
    <rect x="118.67" y="345.9" width="232.26" height="34.51" style="fill: #62c3cd;"/>
  </g>
  <text transform="translate(156.22 369.1)" style="fill: #fff; font-size: 14px;"><tspan x="-8" y="0" style="letter-spacing: .01em;">ファイナンシャルサービス</tspan></text>
  <text transform="translate(84.25 515.16)" style="fill: #221815; font-weight: bold; font-size: 18.34px;"><tspan x="5" y="5" style="letter-spacing: .01em;">手配</tspan></text>
  <text transform="translate(312.03 515.16)" style="fill: #221815; font-weight: bold; font-size: 18.34px; letter-spacing: .01em;"><tspan x="-2" y="5">納品</tspan></text>
  <path d="M115.18,540.73c0,5.45-4.39,9.86-9.8,9.86s-9.79-4.42-9.79-9.86,4.38-9.86,9.79-9.86,9.8,4.42,9.8,9.86" style="fill: #005167;"/>
  <text transform="translate(171.76 465.3)" style="fill: #221815; font-weight: bold; font-size: 20px;"><tspan x="0" y="0" style="letter-spacing: .01em;">5.製品の納品</tspan></text>
  <text transform="translate(171.42 488.75)" style="fill: #221815; font-size: 14.67px;"><tspan x="0" y="0" style="letter-spacing: .01em;">お客様のご指定場所に製品が納品されます。</tspan></text>
  <g>
    <path d="M337.45,540.73c0,5.45-4.39,9.86-9.8,9.86s-9.79-4.42-9.79-9.86,4.38-9.86,9.79-9.86,9.8,4.42,9.8,9.86" style="fill: #005167;"/>
    <rect x="552.79" y="561.53" width="232.26" height="34.51" style="fill: #62c3cd;"/>
  </g>
  <text transform="translate(590.35 584.72)" style="fill: #fff; font-size: 14px;"><tspan x="-8" y="0" style="letter-spacing: .01em;">ファイナンシャルサービス</tspan></text>
  <text transform="translate(512.89 465.3)" style="fill: #221815; font-weight: bold; font-size: 20px;"><tspan x="0" y="0" style="letter-spacing: .01em;">6.サブスク開始</tspan></text>
  <text transform="translate(513.03 488.75)" style="fill: #221815; font-size: 14.67px;"><tspan x="0" y="0" style="letter-spacing: .01em;">納品れた製品をご検収後、物件受領書を交付</tspan></text>
  <text transform="translate(512 515.68)" style="fill: #221815; font-size: 14.67px;"><tspan x="0" y="-5" style="letter-spacing: .01em;">していただきます。</tspan></text>
  <path d="M678.72,540.72c0,5.45-4.39,9.86-9.8,9.86s-9.79-4.42-9.79-9.86,4.38-9.86,9.79-9.86,9.8,4.42,9.8,9.86" style="fill: #62c3cd;"/>
  <text transform="translate(123.12 37.04)" style="fill: #221815; font-weight: bold; font-size: 20px;"><tspan x="0" y="0" style="letter-spacing: .01em;">1.製品の構成</tspan></text>
  <text transform="translate(123.55 60.5)" style="fill: #221815; font-size: 14.67px;"><tspan x="0" y="0" style="letter-spacing: .01em;">HPE DirectPlusコールセンターにて、ご希望の</tspan><tspan x="0" y="22">製品仕様などヒアリングし、構成を確定。</tspan></text>
  <text transform="translate(486.87 37.04)" style="fill: #221815; font-weight: bold; font-size: 20px;"><tspan x="0" y="0" style="letter-spacing: .01em;">2.ヒアリング</tspan></text>
  <text transform="translate(486.57 60.5)" style="fill: #221815; font-size: 14.67px;"><tspan x="0" y="0" style="letter-spacing: .01em;">お客様がご希望されるサブスク期間やプランを</tspan></text>
  <text transform="translate(486.13 87.43)" style="fill: #221815; font-size: 14.67px;"><tspan x="0" y="-5" style="letter-spacing: .01em;">ヒアリングします。</tspan></text>
  <g>
    <path d="M891.05,576.71c19.74,0,35.74-16.11,35.74-35.99s-16-35.98-35.74-35.98-35.74,16.11-35.74,35.98,16.01,35.99,35.74,35.99" style="fill: #fff;"/>
    <path d="M891.05,576.71c19.74,0,35.74-16.11,35.74-35.99s-16-35.98-35.74-35.98-35.74,16.11-35.74,35.98,16.01,35.99,35.74,35.99Z" style="fill: none; stroke: #bfc3c5; stroke-width: 2.26px;"/>
    <path d="M877.59,530.17c-1.03,0-1.88-.84-1.88-1.88s.84-1.88,1.88-1.88,1.88,.84,1.88,1.88-.84,1.88-1.88,1.88m0-2.6c-.4,0-.72,.32-.72,.72s.32,.72,.72,.72,.72-.32,.72-.72-.32-.72-.72-.72" style="fill: #ef801a;"/>
    <path d="M911.08,532.71h-40.06v-8.83h40.06v8.83Zm-38.9-1.16h37.74v-6.51h-37.74v6.51Z" style="fill: #040000;"/>
    <rect x="882.72" y="527.71" width="23.5" height="1.16" style="fill: #54bdb4;"/>
    <path d="M877.59,542.6c-1.03,0-1.88-.84-1.88-1.88s.84-1.88,1.88-1.88,1.88,.84,1.88,1.88-.84,1.88-1.88,1.88m0-2.6c-.4,0-.72,.32-.72,.72s.32,.72,.72,.72,.72-.32,.72-.72-.32-.72-.72-.72" style="fill: #ef801a;"/>
    <path d="M911.08,545.14h-40.06v-8.83h40.06v8.83Zm-38.9-1.16h37.74v-6.51h-37.74v6.51Z" style="fill: #040000;"/>
    <rect x="882.72" y="540.15" width="23.5" height="1.16" style="fill: #54bdb4;"/>
    <path d="M877.59,555.04c-1.03,0-1.88-.84-1.88-1.88s.84-1.88,1.88-1.88,1.88,.84,1.88,1.88-.84,1.88-1.88,1.88m0-2.6c-.4,0-.72,.32-.72,.72s.32,.72,.72,.72,.72-.32,.72-.72-.32-.72-.72-.72" style="fill: #ef801a;"/>
    <path d="M911.08,557.58h-40.06v-8.83h40.06v8.83Zm-38.9-1.16h37.74v-6.51h-37.74v6.51Z" style="fill: #040000;"/>
    <rect x="882.72" y="552.58" width="23.5" height="1.16" style="fill: #54bdb4;"/>
    <path d="M504.73,137.92h-12.74v-11.11l-4.3-6.48,1.63-16.15-16.18-1.9-1.66,16.39-2.9,2.23,2.31,3.59-.72,7.07h-4.27l-.14-1.35-16.16,1.41-1.45-4.16,2.31-2.98-1.58-1.42c.95-1,1.76-2.17,2.4-3.51l2.59,.62v-10.38c.01-.14,0-.28-.01-.48l.58-2.88-1.04-.24c-.64-2.43-2.83-8.04-9.44-9.57-.99-.23-1.98-.34-2.99-.31-1-.54-2.06-.93-3.17-1.16-.71-.15-1.44-.22-2.18-.22-4.4,0-9.63,2.73-11.38,10.31l-5.77-.08,1.06,9.28c.35,3.12,2.11,7.21,5.95,9.73l-1.9,4.54,.2,1.56-3.89,.66,1.11,7.57-2.47,.32,4.04,36.49,4.14,.02v7.07c-.54,1.18-.81,2.41-.81,3.66,0,4.91,3.94,8.91,8.79,8.91,3.08,0,5.9-1.62,7.49-4.26h.38c1.17,1.94,3.01,3.32,5.17,3.92v.48h.92l17.65-.02,.74-.16h5.89l2.91-36.95h7.5l2.91,36.95h16.34l-3.2-40.59h5.31v-16.41Zm-50.8,2.43h0Zm-12.14-21.25h0" style="fill: #fff;"/>
    <rect x="434.92" y="133.98" width="3.98" height="1.74" style="fill: #58479a;"/>
    <polygon points="457.96 143.63 459.58 143.47 459.12 138.15 444.57 139.42 440.74 128.42 439.23 129.03 443.48 141.27 457.65 140.03 457.96 143.63" style="fill: #ef801a;"/>
    <rect x="455.1" y="186.02" width="5.56" height="1.74" style="fill: #040000;"/>
    <polygon points="463.48 142.72 465.1 142.72 465.1 138.9 460.9 138.92 460.9 140.66 463.48 140.65 463.48 142.72" style="fill: #040000;"/>
    <polygon points="430.08 149.72 431.68 149.45 429.81 136.69 428.21 136.96 430.08 149.72" style="fill: #040000;"/>
    <polygon points="441.47 181.62 441.47 165.44 443.09 165.44 443.09 181.62 450.5 181.62 450.5 183.37 434.07 183.37 434.07 181.62 441.47 181.62" style="fill: #040000;"/>
    <rect x="434.07" y="163.4" width="16.44" height="1.74" style="fill: #040000;"/>
    <path d="M450.08,187.63c.81,0,1.46-.71,1.46-1.58s-.65-1.58-1.46-1.58-1.46,.71-1.46,1.58,.65,1.58,1.46,1.58m0-1.74c.09,0,.16,.08,.16,.17,0,.19-.32,.19-.32,0,0-.09,.07-.17,.16-.17" style="fill: #040000;"/>
    <path d="M434.71,187.63c.81,0,1.46-.71,1.46-1.58s-.65-1.58-1.46-1.58-1.46,.71-1.46,1.58,.65,1.58,1.46,1.58m0-1.74c.09,0,.16,.08,.16,.17,0,.19-.32,.19-.32,0,0-.09,.07-.17,.16-.17" style="fill: #040000;"/>
    <polygon points="438.9 168.04 438.91 166.3 430.6 166.26 428.24 144.97 426.63 145.17 429.16 168 438.9 168.04" style="fill: #040000;"/>
    <polygon points="455.47 184.9 460.37 184.9 463.8 153.68 443.56 150.81 443.56 144.91 441.94 144.91 441.94 152.34 462.01 155.18 458.93 183.16 457.09 183.16 457.09 159.98 439.96 159.98 435.39 153.41 435.39 151.95 435.47 150.35 435.46 150.27 432.8 129.98 435.61 123.27 439.47 126.72 440.5 125.38 435.01 120.46 431.13 129.72 433.84 150.43 433.77 151.9 433.77 153.99 439.15 161.72 455.47 161.72 455.47 184.9" style="fill: #58479a;"/>
    <rect x="459.42" y="145.26" width="37.97" height="1.74" style="fill: #80746e;"/>
    <polygon points="483.04 129.58 479.86 124.8 478.73 135.97 477.12 135.77 478.45 122.66 478.4 122.59 478.46 122.55 479.69 110.42 481.3 110.61 480.13 122.19 484.66 129.02 484.66 142.97 478.39 142.97 478.39 141.23 483.04 141.23 483.04 129.58" style="fill: #040000;"/>
    <polygon points="467.6 148.9 491.63 148.9 494.68 187.59 493.05 187.59 490.14 150.64 469.09 150.64 466.17 187.59 464.55 187.59 467.6 148.9" style="fill: #80746e;"/>
    <path d="M438.46,121.32l1.39-2.24c.92,.27,1.84,.18,2.68-.28,1.34-.72,2.38-2.31,2.83-4.36,.09-.4,.51-2.49,.51-2.49l-1.58-.37s-.41,2.05-.5,2.45c-.34,1.52-1.08,2.72-1.98,3.2-.6,.32-1.26,.32-1.95-.01l-.62-.29-2.11,3.41,1.35,.97Z" style="fill: #040000;"/>
    <path d="M427.66,112.63c2.72,.08,2.92-1.05,3.42-3.96,.07-.41,.14-.83,.23-1.28,1.05-5.43,4.12-5.24,5.04-5.05,1.41,.29,2.32,1.23,2.75,1.8,1.03-.48,2.14-.62,3.22-.37,3.37,.78,4.25,4.27,4.25,6.01v1.09l-4.73-1.13,.35-1.7,2.62,.63c-.25-1.13-.93-2.75-2.83-3.19-.96-.22-1.98,0-2.86,.63-.79,.56-1.39,1.42-1.53,2.17-.34,1.87,.16,2.91,.69,3.68l-1.3,1.04c-.64-.93-1.45-2.47-.99-5.05,.19-1.03,.81-2.07,1.71-2.87-.32-.36-.88-.85-1.66-1.01-2.05-.43-2.85,2.13-3.15,3.69-.08,.43-.16,.85-.23,1.24-.46,2.65-.86,4.98-3.99,5.34,.34,.98,1.14,2.42,2.97,2.78,2.44,.49,3-1.48,3.01-1.5l1.57,.42c-.19,.83-1.28,2.91-3.83,2.91-.33,0-.68-.03-1.05-.11-3.17-.64-4.34-3.69-4.51-5.22l-.11-.99h.93Z" style="fill: #ef801a;"/>
    <path d="M137.98,469.09l-13.46-31.91-4.69,2.01-7.35-17.42-4.36,1.86-5.64-13.37-22.85,9.77h-.02l-.29-.07-.18-.45-.32-.11,.02-.08-14.46-5.78-2.96-7.13,1.68-14.84,5.78-1.12-2.69-14.08-5.46,1.06-.84-3.99-5.85,.05c-2.48,.02-8.61,.5-12.02,4.61-3.42,4.13-2.98,9.35-2.86,10.36l.98,7.58,.26-.05-5.33,8.47,2.88,41.12h.3c-.37,3.03-.74,5.91-1.02,7.99l-10.1,15.92-7.82,8.97,14.05,12.39,9.41-10.8-.54-.47c4.02-4.94,6.98-8.58,9.12-11.27,1.11,4.05,2.09,7.68,2.78,10.24l-.55,.15,3.74,13.83,18.08-4.94-3.1-11.46-5.48-36.98-.24-3.93,3.81,1,.47,1.18,1.59-.64,1.39,.37,.3-1.05,3.9-1.58,3.57,1.02,12.75,30.73c-5.48,1.43-9.35,6.38-9.35,12.17,0,6.94,5.63,12.59,12.55,12.59,4.13,0,7.97-2.03,10.32-5.45l23.48-9.72-1.36-3.34,7.99-3.42Z" style="fill: #fff;"/>
    <polygon points="73.55 428.39 72.25 425.15 70.43 424.51 70.92 423.1 73.38 423.96 74.93 427.83 73.55 428.39" style="fill: #040000;"/>
    <path d="M59.51,438.52h-16.45l-2.32-33.06,5.42-8.61,5.71,4.73,6.76,16.27,11.61,4.64-1.74,6.19-9.74-2.57,.76,12.41Zm-15.07-1.5h13.49l-.69-11.31-4.73-1.25-5.18-11.85,1.36-.6,4.89,11.19,13.88,3.66,.98-3.47-10.94-4.37-6.86-16.51-4.12-3.42-4.25,6.76,2.19,31.18Z" style="fill: #14a17c;"/>
  </g>
  <g style="clip-path: url(#clippath-3);">
    <path d="M60.63,480.7l-.19-.73c-.06-.22-6.01-22.72-10.02-35.75l1.42-.44c3.61,11.73,8.79,31.1,9.85,35.08l2.16-.59-7.62-51.46,1.47-.22,7.82,52.78-4.87,1.33Z" style="fill: #14a17c;"/>
  </g>
  <g style="clip-path: url(#clippath-4);">
    <polygon points="60.95 484 60.56 482.56 66.27 481 66.66 482.44 60.95 484" style="fill: #040000;"/>
    <path d="M33.52,478.38l-3.71-3.21,12.71-19.98c.88-6.42,2.99-23.01,2.58-25.35l1.46-.27c.54,3.03-2.27,23.64-2.59,25.99l-.02,.16-12.19,19.16,1.57,1.36c6.04-7.42,14.72-18.16,15.47-19.33,.38-1.59,3.92-14.87,4.65-17.62l1.44,.39c-1.81,6.8-4.55,17.1-4.65,17.63-.04,.23-.11,.69-16.23,20.48l-.48,.59Z" style="fill: #14a17c;"/>
    <polygon points="31.88 481.12 27.46 477.22 28.44 476.1 32.86 479.99 31.88 481.12" style="fill: #040000;"/>
  </g>
  <g style="clip-path: url(#clippath-5);">
    <path d="M49.97,397.25l-1.38-.55,1.26-3.22,.62,.13c.91,.2,1.68,.05,2.27-.43,.7-.57,1.12-1.61,1.12-2.78v-5.06h1.49v5.06c0,1.64-.61,3.08-1.67,3.94-.58,.47-1.52,.96-2.88,.83l-.81,2.07Z" style="fill: #040000;"/>
  </g>
  <g>
    <polygon points="105.77 478.49 85.46 429.56 76.3 426.93 76.7 425.5 86.56 428.32 106.57 476.54 121.56 470.33 122.12 471.71 105.77 478.49" style="fill: #040000;"/>
    <path d="M96.67,483.96c-3.38,0-6.13-2.77-6.13-6.18s2.75-6.18,6.13-6.18,6.13,2.77,6.13,6.18-2.75,6.18-6.13,6.18m0-10.86c-2.56,0-4.65,2.1-4.65,4.68s2.09,4.68,4.65,4.68,4.65-2.1,4.65-4.68-2.09-4.68-4.65-4.68" style="fill: #040000;"/>
    <path d="M107.76,474.01l-8.47-20.09,20.94-8.95,8.47,20.09-20.94,8.95Zm-6.52-19.3l7.31,17.33,18.2-7.78-7.31-17.33-18.2,7.78Z" style="fill: #ef801a;"/>
    <path d="M98.52,452.11l-6.58-15.6,16.24-6.94,6.58,15.6-16.24,6.94Zm-4.63-14.8l5.42,12.84,13.5-5.77-5.42-12.84-13.5,5.77Z" style="fill: #ef801a;"/>
    <path d="M91.13,434.57l-4.82-11.43,11.88-5.08,4.82,11.43-11.88,5.08Zm-2.87-10.64l3.66,8.68,9.15-3.91-3.66-8.68-9.15,3.91Z" style="fill: #ef801a;"/>
    <path d="M44.74,387.78l-.1-.79c-.02-.13-.39-3.24,1.44-5.44,1.81-2.18,6.58-2.29,7.12-2.29h.61l.86,4.1-1.45,.31-.61-2.89c-1.56,.1-4.38,.51-5.39,1.73-.92,1.11-1.11,2.59-1.13,3.49l14.13-2.75,.28,1.47-15.75,3.06Z" style="fill: #14a17c;"/>
    <path d="M457.95,376.72h-3.97l-.13-4.5h-.89l.07-2.35,.95-34.12,.06-2.1-1.35-1.6-5.39-6.39,.44-.71c1.26-2.03,1.85-4.35,1.73-6.72-.32-6.15-5.38-10.97-11.51-10.97-.22,0-.43,0-.65,.02-1.25,.07-2.31,.22-3.33,.38-.67,.1-1.39,.21-2.31,.31l-.74,.09-3.36,.39-1.75-1.24,.25,4.73v1.53l-.02,.75c0,.68,.1,1.31,.24,1.93l.13,2.41,.21,3.96c.18,3.41,1.73,6.41,4.25,8.25,.42,.3,.86,.56,1.31,.79l-3.7,3.82-1.66,1.71,.11,2.37,.25,5.3-11.16,6.44-.93-.25-3.83-1.05-11.98-5.56-6.4-10.61,.19-.72c.67-.32,1.29-.72,1.87-1.18,2.4-1.95,3.78-5.01,3.78-8.39v-4.21c.26-.93,.34-1.88,.29-2.76v-.2l-.04-.19-.02-.12-.03-.2-.04-.2c-.04-.17-.09-.39-.17-.64v-3.24l-1.37,.58c-1.32-1.71-3.69-3.35-7.97-3.35-.51,0-.99,.02-1.42,.04-.24,.01-.44,.02-.61,.02-6.3,0-11.43,5.15-11.43,11.47,0,2.34,.71,4.61,2.05,6.54l.9,1.3-5.08,5.67-1.74,1.95,.41,2.58,3.43,21.84-.11,.74-1.07,7.39-.08,.58,.04,.58,2.83,42.58h-.22v12.69h19.01v-12.69h-.62l3.36-46.46h.26l.06-4.42,.21-2.84,3.7,1.72-1.14,4.72,5.33,1.31,1.63,.4,4.23,1.04,.55,.31,.3-.1,.28,.07,.04-.17,1.66-.53,.67-.21,.31,.77,5.11-2.1,1.55-.64,3.86-1.59,1.18,13.29h-2.89v30.23h5.58l.48,5.34h-1.18v12.69h18.47v-12.69h-.46v-5.34h14.63v-30.23h-5.5Zm-19.33,12.69h12.15v4.84h-12.15v-4.84Zm3.45-71.93c.03,.09,.07,.17,.1,.27-.02-.09-.07-.18-.1-.27m-1.18-1.86c-.09-.08-.19-.15-.29-.22,.1,.08,.2,.14,.29,.22m-1.77-.98c.12,.03,.25,.06,.37,.11-.12-.05-.24-.07-.37-.11m.78,.31c.11,.06,.22,.1,.33,.17-.1-.07-.22-.11-.33-.17m1.31,1.02c.08,.09,.16,.17,.23,.26-.07-.1-.16-.18-.23-.26m.5,.69c.06,.1,.12,.19,.17,.29-.05-.1-.12-.19-.17-.29m-3.42-2.17c.13,.01,.27,.02,.39,.04-.13-.02-.26-.03-.39-.04m-2.28,12.56c-.17-.02-.33-.05-.48-.09,.15,.04,.32,.07,.48,.09m-.75-.16c-.16-.05-.3-.11-.43-.17,.14,.06,.28,.12,.43,.17m-.62-.26c-.18-.1-.35-.2-.5-.3,.14,.1,.31,.21,.5,.3m-47.75,21.79l-.03-.18,.12,.2-.09-.03Zm2.96-33.99c.18,0,.35,.02,.52,.03-.17-.02-.35-.03-.52-.03m.77,.06c.25,.03,.5,.07,.74,.13-.24-.06-.49-.1-.74-.13m53.19,2.85c.1,.39,.16,.78,.18,1.2-.02-.41-.09-.81-.18-1.2m-1-2.09c.14,.18,.25,.39,.36,.59-.11-.2-.22-.41-.36-.59m.6,.99c.11,.23,.19,.48,.27,.72-.08-.25-.16-.5-.27-.72m-.92-1.36c-.14-.17-.28-.33-.44-.48,.16,.15,.3,.32,.44,.48m-1.35-1.18c.18,.11,.34,.25,.51,.38-.17-.13-.33-.27-.51-.38m-3.16-.92c.16,0,.32,.03,.47,.05-.27-.02-.54-.05-.81-.04,.11,0,.23,0,.34,0m2.7,.68c-.19-.1-.37-.2-.57-.27,.2,.08,.38,.17,.57,.27m-1.07-.43c-.2-.06-.4-.12-.61-.16,.21,.04,.41,.1,.61,.16m-3.27,14.06c.07,0,.15,0,.22,0l-.02,.02c-.07,0-.13-.01-.2-.02m-46.66,1.3c.15-.03,.3-.07,.44-.11-.14,.04-.28,.08-.43,.11h0Zm1.82-.82c-.14,.11-.3,.23-.49,.33,.18-.11,.35-.22,.49-.33m-.67,.43c-.14,.07-.27,.14-.43,.2,.16-.06,.29-.13,.43-.2m.78-13.29c-.08-.02-.15-.06-.23-.08,.08,.02,.16,.05,.23,.08h0Zm-2.02-.28c-.13,0-.25,0-.37,0,.07,0,.12,0,.2,0,.06,0,.12,0,.18,0" style="fill: #fff;"/>
  </g>
  <g style="clip-path: url(#clippath-6);">
    <rect x="384.34" y="361.06" width="6.88" height="1.69" style="fill: #040000;"/>
    <polygon points="390.39 415.44 383.8 415.44 380.68 368.45 381.91 359.95 383.57 360.2 382.36 368.51 385.37 413.75 388.83 413.75 392.74 359.57 394.41 359.7 390.39 415.44" style="fill: #040000;"/>
    <rect x="383.3" y="416.89" width="8.01" height="1.69" style="fill: #040000;"/>
  </g>
  <polygon points="447.78 375.01 443.55 374.94 443.41 370.32 445.08 370.27 445.17 373.28 447.81 373.32 447.78 375.01" style="fill: #040000;"/>
  <g style="clip-path: url(#clippath-7);">
    <path d="M438.77,324.14l-.09-1.69c1.17-.06,2.24-.58,3.01-1.45,.78-.87,1.18-2,1.11-3.17-.13-2.42-2.19-4.27-4.59-4.15-.94,.05-1.72,.16-2.7,.31-.45,.07-.95,.14-1.51,.21,.64,.86,2.3,1.61,3.72,1.74l.43,.04,.22,.37c.9,1.55,.92,3,.82,4.22l-1.67-.14c.07-.9,.07-1.86-.41-2.87-2.26-.36-5.06-1.87-5.05-4.08v-.75l.74-.08c.98-.11,1.76-.23,2.46-.33,.99-.15,1.84-.27,2.86-.33,3.32-.19,6.18,2.4,6.35,5.75,.09,1.62-.46,3.18-1.54,4.39-1.08,1.21-2.56,1.92-4.17,2.01" style="fill: #0a5063;"/>
  </g>
  <polygon points="448.04 368.94 442.8 368.94 440.8 339.13 442.47 339.02 444.37 367.25 446.41 367.25 447.3 335.42 443.07 330.41 434.67 339.08 435.57 358.11 433.89 358.19 432.96 338.43 443.16 327.9 448.99 334.82 448.04 368.94" style="fill: #54bdb4;"/>
  <g style="clip-path: url(#clippath-8);">
    <path d="M439.31,331.52l-1.67-5.23c-1.38,.17-2.37-.28-2.99-.74-1.18-.86-1.91-2.35-2-4.1l-.28-5.32,1.67-.09,.28,5.32c.06,1.22,.55,2.27,1.31,2.82,.64,.47,1.43,.57,2.36,.32l.77-.21,2.15,6.71-1.6,.52Z" style="fill: #040000;"/>
  </g>
  <polygon points="447.44 380.29 447.39 378.58 443.02 378.55 442.98 380.29 441.3 380.24 441.39 376.85 449.02 376.9 449.11 380.24 447.44 380.29" style="fill: #040000;"/>
  <g style="clip-path: url(#clippath-9);">
    <rect x="436.55" y="359.93" width="3.47" height="1.69" style="fill: #040000;"/>
    <polygon points="443.83 415.49 438.39 415.49 433.31 358.53 434.98 358.38 439.92 413.81 442.15 413.81 442.15 389.89 443.83 389.89 443.83 415.49" style="fill: #040000;"/>
    <rect x="436.83" y="417.01" width="7.47" height="1.69" style="fill: #221f20;"/>
  </g>
  <g style="clip-path: url(#clippath-10);">
    <rect x="436.55" y="359.93" width="3.47" height="1.69" style="fill: #221f20;"/>
    <polygon points="443.83 415.49 438.39 415.49 433.31 358.53 434.98 358.38 439.92 413.81 442.15 413.81 442.15 389.89 443.83 389.89 443.83 415.49" style="fill: #221f20;"/>
    <rect x="436.83" y="417.01" width="7.47" height="1.69" style="fill: #040000;"/>
  </g>
  <path d="M458.46,400.67h-26.51v-19.23h26.51v19.23Zm-24.83-1.69h23.15v-15.85h-23.15v15.85Z" style="fill: #040000;"/>
  <polygon points="420.65 359.79 418.89 355.43 433.45 347.03 434.28 348.49 420.99 356.16 422.21 359.15 420.65 359.79" style="fill: #54bdb4;"/>
  <polygon points="414.96 361.19 412.58 359.86 413.4 358.38 415.14 359.36 418.35 358.32 418.86 359.93 414.96 361.19" style="fill: #040000;"/>
  <polygon points="415.13 358.39 414.84 357.41 413.73 357.1 414.17 355.47 416.19 356.03 416.74 357.92 415.13 358.39" style="fill: #040000;"/>
  <g style="clip-path: url(#clippath-11);">
    <path d="M387.87,325.63c-3.27,0-5.93-2.68-5.93-5.97s2.66-5.97,5.93-5.97c.25,0,.54-.01,.85-.03,1.79-.08,4.78-.22,5.3,2.24v.12c.16,2.4-2.86,2.83-4.87,3.11-.4,.99-.35,1.92-.24,2.79l-1.66,.23c-.16-1.19-.22-2.62,.58-4.18l.2-.38,.87-.13c1.28-.18,3.41-.48,3.45-1.28-.26-.91-1.84-.91-3.56-.83-.34,.01-.66,.03-.93,.03-2.34,0-4.25,1.92-4.25,4.28s1.91,4.28,4.25,4.28v1.69Z" style="fill: #0a5063;"/>
  </g>
  <g style="clip-path: url(#clippath-12);">
    <path d="M387.74,332.85l-1.62-.43,1.75-6.69,.78,.17c.91,.2,1.68,.06,2.28-.43,.7-.57,1.12-1.62,1.12-2.81v-5.21h1.68v5.21c0,1.71-.64,3.22-1.75,4.12-.58,.47-1.55,.97-2.88,.88l-1.36,5.19Z" style="fill: #040000;"/>
  </g>
  <g style="clip-path: url(#clippath-13);">
    <rect x="391.28" y="356.2" width="4.59" height="1.68" transform="translate(31 745.53) rotate(-89.19)" style="fill: #58479a;"/>
    <polygon points="410.9 360.47 409.27 360.07 410.18 356.29 394.8 349.16 394.67 348.94 384.67 332.38 380.2 337.38 383.75 359.96 382.09 360.23 378.42 336.84 384.94 329.57 395.97 347.84 412.14 355.34 410.9 360.47" style="fill: #58479a;"/>
  </g>
  <path d="M924.08,98.29l-11.06-6.43-3.69-2.14-3.69,2.14-11.06,6.43-3.65,2.12v2.1s-.03,0-.05,0c-1.35,0-2.63,.32-3.77,.87-1.14-.56-2.42-.87-3.77-.87s-2.63,.32-3.77,.87c-1.05-.52-2.22-.81-3.46-.85l.05-1.93,2.87-2.89-2.73-2.75,.84-34.15,.12-4.69-4.21-2.07-6.81-3.35v-.12c.05-.24,.09-.48,.11-.72l.31-3.32,.69-7.29-1.54-.15c-.55-1.34-1.31-2.58-2.3-3.67-2.4-2.64-5.87-4.16-9.51-4.16-4.91,0-9.17,2.87-11.3,7.06l-3.34,.76-4.29,.97-.71,2.58-.24-.07-2.22,6.79-2.4,7.36-.55,.27,.28,.57-3.04,9.32-3.2,9.81,10.32-.21,3.72-.07c.05,.91,.11,1.81,.16,2.68v.1c.18,2.95,.4,6.61,.4,7.39v7.34h.22c.05,2.39,.12,5.18,.22,8.2-1.04-.39-2.16-.63-3.34-.63-1.35,0-2.62,.29-3.79,.79-1.16-.51-2.44-.79-3.79-.79s-2.63,.29-3.79,.8c-1.17-.51-2.45-.8-3.8-.8-5.26,0-9.54,4.29-9.54,9.57s4.28,9.57,9.54,9.57c1.35,0,2.64-.29,3.8-.8,1.16,.51,2.45,.8,3.79,.8s2.63-.29,3.79-.79c1.16,.51,2.44,.79,3.79,.79,1.41,0,2.74-.33,3.95-.88,.29,7.69,.59,14.95,.78,19.65h-.03v16.58h29.21v-16.58h-.03c.22-5.33,.57-13.89,.9-22.64,1.57,1.74,3.82,2.86,6.35,2.86,1.35,0,2.63-.31,3.76-.87,1.14,.56,2.42,.87,3.77,.87s2.63-.32,3.77-.87c1.14,.56,2.42,.87,3.77,.87,.02,0,.03,0,.05,0v2.1l3.65,2.12,11.06,6.43,3.69,2.14,3.69-2.14,11.06-6.43,3.65-2.12v-21.3l-3.65-2.12Zm-13.46,13.56l-1.28,.74-1.28-.74v-1.58l1.28-.75,1.28,.75v1.58Z" style="fill: #fff;"/>
  <polygon points="833.17 69.15 838.89 51.63 843.89 53.12 843.35 54.95 840.11 53.98 835.8 67.19 841.89 67.07 841.93 68.98 833.17 69.15" style="fill: #040000;"/>
  <polygon points="841.6 51.16 839.78 50.65 840.99 46.23 845.89 45.12 846.31 46.98 842.51 47.84 841.6 51.16" style="fill: #040000;"/>
  <polygon points="846.53 53 844.64 48.49 846.39 47.75 848.27 52.27 846.53 53" style="fill: #040000;"/>
  <path d="M849.96,45.33c-.3,0-.48-.02-.52-.02l-.85-.09v-.86c0-3.12,2.48-5.77,5.42-5.77,1.58,0,3.07,.64,4.08,1.75,1.02,1.12,1.48,2.59,1.33,4.26l-1.89-.17c.1-1.12-.19-2.09-.84-2.8-.66-.72-1.63-1.14-2.68-1.14-1.57,0-2.98,1.27-3.4,2.89,.96-.1,2.47-.46,3.78-1.65l1.27,1.41c-2.13,1.95-4.64,2.18-5.7,2.18" style="fill: #0a5063;"/>
  <path d="M854.01,54.16c-2.64,0-4.76-2.1-5.04-4.99l-.16-2.69,1.89-.12,.16,2.65c.16,1.59,1.29,3.24,3.16,3.24,1.73,0,2.98-1.28,3.16-3.27l.31-3.33,1.89,.18-.31,3.33c-.27,2.94-2.35,4.99-5.04,4.99" style="fill: #040000;"/>
  <path d="M853.25,59.64l-3.08,22.92,3.83,4.47,3.89-4.46-3.12-22.93h-1.53Zm.77,24.49l-1.86-2.17,1.86-13.84,1.88,13.84-1.89,2.16Z" style="fill: #040000;"/>
  <path d="M852.05,145.02h-5.04l-.04-.91c-.02-.43-1.89-43.58-1.89-55.3h1.89c0,10.73,1.58,47.99,1.85,54.31h3.23v1.91Z" style="fill: #14a17c;"/>
  <path d="M860.99,145.02h-8.95v-1.91h7.14c.27-6.32,1.84-43.58,1.84-54.31h1.89c0,11.72-1.87,54.87-1.89,55.3l-.04,.91Z" style="fill: #14a17c;"/>
  <rect x="848.7" y="88.82" width="10.55" height="1.91" style="fill: #14a17c;"/>
  <rect x="846.73" y="146.73" width="6.5" height="1.91" style="fill: #040000;"/>
  <rect x="854.77" y="146.73" width="6.5" height="1.91" style="fill: #040000;"/>
  <rect x="853.03" y="94.68" width="1.89" height="49.38" style="fill: #14a17c;"/>
  <polygon points="865.06 101.35 863.73 100 867.36 96.35 868.7 97.7 865.06 101.35" style="fill: #040000;"/>
  <polygon points="868.96 95.35 864.59 95.35 864.59 93.44 867.11 93.44 867.9 61.8 858.25 57.05 855.4 59.27 854.24 57.76 858.02 54.82 869.82 60.62 868.96 95.35" style="fill: #040000;"/>
  <path d="M846.82,86.58h-1.89c0-.99-.19-4.16-.41-7.82-.22-3.74-.47-7.99-.6-11.14-.05-1.35-.08-2.37-.08-3.14h1.89c0,.73,.03,1.76,.08,3.06,.12,3.14,.37,7.37,.6,11.1,.22,3.7,.41,6.89,.41,7.94" style="fill: #040000;"/>
  <path d="M863.08,86.58h-1.89c0-1.05,.19-4.24,.41-7.94,.3-5.07,.67-11.39,.67-14.17v-.79h1.89v.79c0,2.84-.38,9.18-.68,14.28-.22,3.67-.41,6.84-.41,7.83" style="fill: #040000;"/>
  <g style="clip-path: url(#clippath-14);">
    <polygon points="839.58 62.07 838.74 60.35 850.01 54.82 853.79 57.76 852.63 59.27 849.78 57.05 839.58 62.07" style="fill: #040000;"/>
  </g>
  <path d="M909.33,123.91l-11.06-6.43v-12.86l11.06-6.43,11.06,6.43v12.86l-11.06,6.43Zm-8.62-7.85l8.62,5.01,8.62-5.01v-10.02l-8.62-5.01-8.62,5.01v10.02Z" style="fill: #ef801a;"/>
  <path d="M890.89,112.28c-.68,0-1.23-.55-1.23-1.22s.55-1.22,1.23-1.22,1.23,.55,1.23,1.22-.55,1.22-1.23,1.22m-7.54,0c-.68,0-1.23-.55-1.23-1.22s.55-1.22,1.23-1.22,1.23,.55,1.23,1.22-.55,1.22-1.23,1.22m-7.53,0c-.69,0-1.24-.55-1.24-1.22s.55-1.22,1.24-1.22,1.22,.55,1.22,1.22-.54,1.22-1.22,1.22" style="fill: #54bdb4;"/>
  <path d="M832.47,111.06c0-1.23,.98-2.24,2.22-2.24s2.22,1.01,2.22,2.24-1,2.24-2.22,2.24-2.22-1-2.22-2.24" style="fill: #ef801a;"/>
  <path d="M824.89,111.06c0-1.23,.98-2.24,2.22-2.24s2.22,1.01,2.22,2.24-1,2.24-2.22,2.24-2.22-1-2.22-2.24" style="fill: #ef801a;"/>
  <path d="M817.31,111.06c0-1.23,.98-2.24,2.2-2.24s2.24,1.01,2.24,2.24-1,2.24-2.24,2.24-2.2-1-2.2-2.24" style="fill: #ef801a;"/>
</svg>
