<?xml version="1.0" encoding="UTF-8"?>
<svg id="_イヤー_1" data-name="レイヤー 1" xmlns="http://www.w3.org/2000/svg" width="1000" height="483.79" viewBox="0 0 1000 483.79">
  <path d="M928.32,56.36l11.38,11.38,3.29-3.29-11.38-11.38,3.07-3.07-12.69-16.92-13.66,13.66,16.92,12.69,3.07-3.07Zm-12.91-10.12l6.07-6.07,7.05,9.4-3.72,3.72-9.4-7.05Z" style="fill: #040000;"/>
  <path d="M985.91,97.5l-16.45-16.45,3.29-3.29-3.29-3.29-3.29,3.29-4.93,4.93-5.09-5.09-3.29,3.29,5.08,5.09-8.22,8.23,3.29,3.29,3.29-3.29,16.45,16.45c1.76,1.76,4.09,2.72,6.58,2.72s4.82-.96,6.57-2.72c3.63-3.63,3.63-9.53,0-13.16m-3.29,9.87c-1.75,1.75-4.82,1.75-6.58,0l-16.45-16.45,3.29-3.29,3.29-3.29,16.45,16.45c1.81,1.82,1.81,4.77,0,6.58" style="fill: #040000;"/>
  <path d="M921.18,108.73c-2.49,0-4.82-.97-6.58-2.72-1.76-1.76-2.72-4.1-2.72-6.58s.97-4.82,2.72-6.58l37.48-37.48c-1.69-6.36,.12-13.27,4.8-17.96,3.5-3.51,8.17-5.44,13.13-5.44,2.14,0,4.24,.36,6.26,1.08l3.47,1.23-12.11,12.12,1.09,5.48,5.49,1.1,12.11-12.12,1.23,3.47c2.39,6.74,.68,14.35-4.36,19.39-3.51,3.51-8.17,5.44-13.13,5.44h0c-1.64,0-3.26-.21-4.82-.63l-37.48,37.48c-1.76,1.76-4.09,2.72-6.58,2.72m48.84-72.11c-3.72,0-7.22,1.45-9.84,4.07-3.78,3.78-5.06,9.49-3.26,14.55l.49,1.38-39.51,39.51c-.88,.88-1.36,2.05-1.36,3.29s.48,2.41,1.36,3.29c1.76,1.75,4.82,1.75,6.58,0l39.51-39.51,1.38,.49c5.02,1.78,10.79,.5,14.55-3.26,2.82-2.82,4.25-6.72,4.04-10.62l-8.22,8.21-10.96-2.2-2.2-10.96,8.22-8.22c-.26-.01-.52-.02-.79-.02" style="fill: #13a37e;"/>
  <rect x="922.14" y="93.81" width="4.65" height="4.65" transform="translate(202.8 681.87) rotate(-45)" style="fill: #13a37e;"/>
  <polygon points="551.44 134.65 546.69 134.65 546.69 107.11 522.9 83.31 522.9 57.82 527.65 57.82 527.65 81.35 551.44 105.14 551.44 134.65" style="fill: #15a17d;"/>
  <polygon points="574.2 134.65 569.45 134.65 569.45 98.26 545.66 74.47 545.66 31.74 550.41 31.74 550.41 72.5 574.2 96.3 574.2 134.65" style="fill: #ef801a;"/>
  <polygon points="596.96 134.65 592.21 134.65 592.21 90.04 568.42 66.24 568.42 52.45 573.17 52.45 573.17 64.28 596.96 88.07 596.96 134.65" style="fill: #040000;"/>
  <rect x="614.98" y="85.83" width="4.75" height="48.82" style="fill: #60b8c2;"/>
  <path d="M548.04,34.11c-6.45,0-11.71-5.25-11.71-11.71s5.25-11.7,11.71-11.7,11.71,5.25,11.71,11.7-5.25,11.71-11.71,11.71m0-18.66c-3.84,0-6.96,3.12-6.96,6.95s3.12,6.96,6.96,6.96,6.96-3.12,6.96-6.96-3.12-6.95-6.96-6.95" style="fill: #ef801a;"/>
  <path d="M570.8,54.85c-6.45,0-11.71-5.25-11.71-11.71s5.25-11.71,11.71-11.71,11.71,5.25,11.71,11.71-5.26,11.71-11.71,11.71m0-18.66c-3.84,0-6.96,3.12-6.96,6.96s3.12,6.96,6.96,6.96,6.96-3.12,6.96-6.96-3.12-6.96-6.96-6.96" style="fill: #040000;"/>
  <path d="M617.35,88.2c-6.45,0-11.71-5.25-11.71-11.7s5.25-11.71,11.71-11.71,11.71,5.25,11.71,11.71-5.25,11.7-11.71,11.7m0-18.66c-3.84,0-6.96,3.12-6.96,6.96s3.12,6.95,6.96,6.95,6.96-3.12,6.96-6.95-3.12-6.96-6.96-6.96" style="fill: #60b8c2;"/>
  <path d="M525.27,60.23c-6.45,0-11.71-5.25-11.71-11.71s5.25-11.71,11.71-11.71,11.71,5.25,11.71,11.71-5.25,11.71-11.71,11.71m0-18.66c-3.84,0-6.96,3.12-6.96,6.96s3.12,6.96,6.96,6.96,6.96-3.12,6.96-6.96-3.12-6.96-6.96-6.96" style="fill: #15a17d;"/>
  <path d="M240.74,117.37c-13.96,0-25.31-11.35-25.31-25.31s11.35-25.32,25.31-25.32,25.32,11.36,25.32,25.32-11.36,25.31-25.32,25.31m0-44.93c-10.82,0-19.62,8.8-19.62,19.62s8.8,19.61,19.62,19.61,19.62-8.8,19.62-19.61-8.8-19.62-19.62-19.62" style="fill: #54bdb4;"/>
  <path d="M245.47,104.12h-9.42v-7.66c-2.59-1.61-4.22-4.46-4.22-7.56,0-4.91,3.99-8.9,8.9-8.9s8.9,3.99,8.9,8.9c0,3.07-1.6,5.92-4.16,7.53v7.69Zm-5.85-3.56h2.29v-6.33l1.04-.47c1.9-.87,3.13-2.77,3.13-4.85,0-2.94-2.4-5.34-5.34-5.34s-5.34,2.4-5.34,5.34c0,2.1,1.24,4.01,3.16,4.87l1.05,.47v6.32Z" style="fill: #ef801a;"/>
  <path d="M266.92,64.66v-23.12c0-14.44-11.75-26.19-26.19-26.19s-26.19,11.75-26.19,26.19v23.12c-7.23,6.92-11.76,16.63-11.76,27.41,0,20.92,17.02,37.95,37.95,37.95s37.95-17.02,37.95-37.95c0-10.77-4.53-20.49-11.76-27.4m-26.19,59.65c-17.79,0-32.26-14.47-32.26-32.25s14.47-32.26,32.26-32.26c3.6,0,7.06,.62,10.29,1.71l-.07-5.97c-3.26-.91-6.68-1.44-10.22-1.44-7.55,0-14.57,2.24-20.49,6.06v-18.63c0-11.3,9.19-20.49,20.49-20.49s20.49,9.19,20.49,20.49v18.63h0v4.71c0,.22,0,.43-.02,.64v.11h.02v1.54c7.18,5.92,11.77,14.88,11.77,24.9,0,17.79-14.47,32.25-32.26,32.25" style="fill: #040000;"/>
  <path d="M499.2,322.64c-5.17,0-10.5-1.27-15.63-4.17l3.29-5.82c10.71,6.05,27.46,3.92,35.82-10.09l5.74,3.43c-5.71,9.55-17.01,16.66-29.21,16.66" style="fill: #004f64;"/>
  <path d="M505.03,362.11c-4.82,0-9.43-1.93-12.64-5.31l-2.12-2.23c-3.04-3.2-4.99-7.14-5.63-11.39l-2.55-17.06,6.61-.99,2.55,17.05c.44,2.88,1.77,5.57,3.87,7.78l2.12,2.23c1.95,2.05,4.79,3.23,7.79,3.23s5.84-1.18,7.79-3.23l2.12-2.23c2.1-2.21,3.43-4.9,3.87-7.78l2.55-17.05,6.61,.99-2.55,17.05c-.64,4.25-2.58,8.19-5.63,11.4l-2.12,2.23c-3.21,3.37-7.81,5.31-12.64,5.31" style="fill: #040000;"/>
  <path d="M548.25,320.46c0-10.22-5.73-19.74-14.7-24.58-4.91-10.96-15.66-17.97-27.75-17.97-16.46,0-29.91,13.13-30.41,29.47-8.11,3.12-13.57,10.91-13.57,19.79,0,10.68,7.94,19.52,18.22,20.99-.21-.77-.39-1.56-.51-2.35l-.71-4.72c-5.97-1.82-10.32-7.36-10.32-13.92s4.56-12.52,11.09-14.11l2.71-.66-.2-3.25c-.02-.27-.04-.54-.04-.82,0-13.09,10.65-23.75,23.75-23.75,9.76,0,18.41,5.87,22.04,14.95l.48,1.21,1.17,.56c7.45,3.58,12.07,10.92,12.07,19.15,0,7.39-3.8,13.91-9.54,17.72l-1.14,7.63c-.03,.18-.07,.36-.11,.54,10.23-4.15,17.47-14.18,17.47-25.89" style="fill: #004f64;"/>
  <path d="M541.42,267.51c-.89,0-1.73-.32-2.35-.96-.65-.62-.99-1.46-.99-2.35s.35-1.76,.99-2.37c1.24-1.24,3.46-1.24,4.7,0,.62,.62,.99,1.49,.99,2.37s-.35,1.73-.99,2.35c-.62,.64-1.46,.96-2.35,.96" style="fill: #13a37e;"/>
  <path d="M538.08,247.46c0-1.83,1.48-3.34,3.34-3.34s3.34,1.51,3.34,3.34-1.51,3.34-3.34,3.34-3.34-1.48-3.34-3.34m0-16.73c0-1.83,1.48-3.34,3.34-3.34s3.34,1.51,3.34,3.34-1.51,3.34-3.34,3.34-3.34-1.48-3.34-3.34" style="fill: #13a37e;"/>
  <path d="M541.42,217.34c-.45,0-.86-.07-1.29-.25-.4-.17-.77-.42-1.06-.72-.32-.32-.57-.69-.74-1.09-.17-.4-.25-.84-.25-1.29,0-.2,.02-.42,.07-.64,.02-.22,.1-.42,.17-.62,.1-.2,.2-.4,.32-.6,.12-.17,.25-.35,.42-.49,1.24-1.24,3.46-1.24,4.7,0,.64,.62,.99,1.48,.99,2.35,0,.45-.07,.89-.25,1.29-.17,.4-.42,.77-.74,1.09-.3,.3-.67,.55-1.06,.72-.42,.17-.84,.25-1.29,.25" style="fill: #13a37e;"/>
  <path d="M928.19,214c0-1.83,1.48-3.34,3.34-3.34s3.34,1.51,3.34,3.34-1.49,3.34-3.34,3.34-3.34-1.49-3.34-3.34m-16.95,0c0-1.83,1.48-3.34,3.34-3.34s3.34,1.51,3.34,3.34-1.51,3.34-3.34,3.34-3.34-1.49-3.34-3.34m-16.98,0c0-1.83,1.51-3.34,3.34-3.34s3.34,1.51,3.34,3.34-1.49,3.34-3.34,3.34-3.34-1.49-3.34-3.34m-16.95,0c0-1.83,1.51-3.34,3.34-3.34s3.34,1.51,3.34,3.34-1.48,3.34-3.34,3.34-3.34-1.49-3.34-3.34m-16.96,0c0-1.83,1.49-3.34,3.34-3.34s3.34,1.51,3.34,3.34-1.51,3.34-3.34,3.34-3.34-1.49-3.34-3.34m-16.95,0c0-1.83,1.48-3.34,3.34-3.34s3.34,1.51,3.34,3.34-1.51,3.34-3.34,3.34-3.34-1.49-3.34-3.34m-16.98,0c0-1.83,1.51-3.34,3.34-3.34s3.34,1.51,3.34,3.34-1.49,3.34-3.34,3.34-3.34-1.49-3.34-3.34m-16.95,0c0-1.83,1.48-3.34,3.34-3.34s3.34,1.51,3.34,3.34-1.51,3.34-3.34,3.34-3.34-1.49-3.34-3.34m-16.95,0c0-1.83,1.49-3.34,3.34-3.34s3.34,1.51,3.34,3.34-1.51,3.34-3.34,3.34-3.34-1.49-3.34-3.34m-16.98,0c0-1.83,1.51-3.34,3.34-3.34s3.34,1.51,3.34,3.34-1.48,3.34-3.34,3.34-3.34-1.49-3.34-3.34m-16.95,0c0-1.83,1.49-3.34,3.34-3.34s3.34,1.51,3.34,3.34-1.51,3.34-3.34,3.34-3.34-1.49-3.34-3.34m-16.95,0c0-1.83,1.48-3.34,3.34-3.34s3.34,1.51,3.34,3.34-1.51,3.34-3.34,3.34-3.34-1.49-3.34-3.34m-16.98,0c0-1.83,1.51-3.34,3.34-3.34s3.34,1.51,3.34,3.34-1.48,3.34-3.34,3.34-3.34-1.49-3.34-3.34m-16.95,0c0-1.83,1.48-3.34,3.34-3.34s3.34,1.51,3.34,3.34-1.49,3.34-3.34,3.34-3.34-1.49-3.34-3.34m-16.96,0c0-1.83,1.49-3.34,3.34-3.34s3.34,1.51,3.34,3.34-1.51,3.34-3.34,3.34-3.34-1.49-3.34-3.34m-16.98,0c0-1.83,1.51-3.34,3.34-3.34s3.34,1.51,3.34,3.34-1.49,3.34-3.34,3.34-3.34-1.49-3.34-3.34m-16.96,0c0-1.83,1.51-3.34,3.34-3.34s3.34,1.51,3.34,3.34-1.48,3.34-3.34,3.34-3.34-1.49-3.34-3.34m-16.95,0c0-1.83,1.48-3.34,3.34-3.34s3.34,1.51,3.34,3.34-1.51,3.34-3.34,3.34-3.34-1.49-3.34-3.34m-16.98,0c0-1.83,1.51-3.34,3.37-3.34s3.34,1.51,3.34,3.34-1.51,3.34-3.34,3.34-3.37-1.49-3.37-3.34m-16.95,0c0-1.83,1.51-3.34,3.34-3.34s3.34,1.51,3.34,3.34-1.49,3.34-3.34,3.34-3.34-1.49-3.34-3.34m-16.95,0c0-1.83,1.48-3.34,3.34-3.34s3.34,1.51,3.34,3.34-1.51,3.34-3.34,3.34-3.34-1.49-3.34-3.34m-16.96,0c0-1.83,1.49-3.34,3.34-3.34s3.34,1.51,3.34,3.34-1.51,3.34-3.34,3.34-3.34-1.49-3.34-3.34m-16.98,0c0-1.83,1.51-3.34,3.34-3.34s3.34,1.51,3.34,3.34-1.48,3.34-3.34,3.34-3.34-1.49-3.34-3.34" style="fill: #13a37e;"/>
  <path d="M948.49,217.34c-.89,0-1.73-.35-2.35-.97s-.99-1.46-.99-2.37c0-.86,.37-1.73,.99-2.35,.77-.77,1.93-1.14,3.02-.92,.2,.05,.42,.1,.62,.2,.2,.07,.4,.17,.57,.3,.2,.12,.37,.27,.52,.42,.62,.62,.97,1.48,.97,2.35s-.35,1.73-.97,2.37c-.64,.62-1.49,.97-2.37,.97" style="fill: #13a37e;"/>
  <path d="M945.14,197.05c0-1.86,1.51-3.34,3.34-3.34s3.34,1.48,3.34,3.34-1.48,3.34-3.34,3.34-3.34-1.51-3.34-3.34m0-16.98c0-1.83,1.51-3.31,3.34-3.31s3.34,1.49,3.34,3.31-1.48,3.37-3.34,3.37-3.34-1.51-3.34-3.37m0-16.95c0-1.86,1.51-3.34,3.34-3.34s3.34,1.48,3.34,3.34-1.48,3.34-3.34,3.34-3.34-1.48-3.34-3.34m0-16.98c0-1.83,1.51-3.32,3.34-3.32s3.34,1.49,3.34,3.32-1.48,3.37-3.34,3.37-3.34-1.51-3.34-3.37m0-16.95c0-1.83,1.51-3.34,3.34-3.34s3.34,1.51,3.34,3.34-1.48,3.34-3.34,3.34-3.34-1.48-3.34-3.34m0-16.95c0-1.86,1.51-3.34,3.34-3.34s3.34,1.49,3.34,3.34-1.48,3.34-3.34,3.34-3.34-1.51-3.34-3.34" style="fill: #13a37e;"/>
  <path d="M509.42,267.51c-.45,0-.86-.07-1.29-.25-.4-.15-.77-.4-1.07-.72-.64-.62-.99-1.46-.99-2.35s.35-1.76,.99-2.37c.77-.77,1.93-1.12,3-.92,.22,.05,.42,.12,.64,.2,.2,.07,.39,.2,.57,.3,.17,.12,.35,.27,.52,.42,.62,.62,.97,1.49,.97,2.37s-.35,1.73-.99,2.35c-.3,.32-.67,.57-1.06,.72-.42,.17-.84,.25-1.29,.25" style="fill: #60b8c2;"/>
  <path d="M506.08,247.19c0-1.86,1.48-3.34,3.34-3.34s3.34,1.48,3.34,3.34-1.49,3.34-3.34,3.34-3.34-1.51-3.34-3.34m0-17c0-1.85,1.48-3.34,3.34-3.34s3.34,1.48,3.34,3.34-1.49,3.34-3.34,3.34-3.34-1.51-3.34-3.34m0-17c0-1.85,1.48-3.34,3.34-3.34s3.34,1.49,3.34,3.34-1.49,3.34-3.34,3.34-3.34-1.51-3.34-3.34m0-17c0-1.86,1.48-3.34,3.34-3.34s3.34,1.49,3.34,3.34-1.49,3.34-3.34,3.34-3.34-1.51-3.34-3.34" style="fill: #60b8c2;"/>
  <path d="M509.42,182.52c-.89,0-1.73-.35-2.35-.99-.64-.62-.99-1.46-.99-2.35s.35-1.76,.99-2.37c.15-.15,.32-.3,.5-.42,.17-.1,.37-.22,.57-.3,.22-.07,.42-.15,.64-.2,1.06-.2,2.23,.15,3,.92,.64,.62,.99,1.48,.99,2.37s-.35,1.73-.99,2.35c-.3,.32-.67,.57-1.06,.72-.42,.17-.84,.27-1.29,.27" style="fill: #60b8c2;"/>
  <path d="M573.42,179.18c0-1.86,1.48-3.34,3.34-3.34s3.34,1.49,3.34,3.34-1.51,3.34-3.34,3.34-3.34-1.51-3.34-3.34m-16.83,0c0-1.86,1.48-3.34,3.34-3.34s3.34,1.49,3.34,3.34-1.51,3.34-3.34,3.34-3.34-1.51-3.34-3.34m-16.86,0c0-1.86,1.51-3.34,3.34-3.34s3.34,1.49,3.34,3.34-1.48,3.34-3.34,3.34-3.34-1.51-3.34-3.34m-16.83,0c0-1.86,1.51-3.34,3.34-3.34s3.34,1.49,3.34,3.34-1.49,3.34-3.34,3.34-3.34-1.51-3.34-3.34" style="fill: #60b8c2;"/>
  <path d="M593.59,182.52c-.45,0-.86-.1-1.26-.25-.42-.17-.79-.42-1.09-.74-.65-.62-.99-1.46-.99-2.35s.37-1.76,.99-2.37c.77-.77,1.93-1.12,3.02-.92,.2,.05,.42,.12,.62,.2,.2,.07,.4,.2,.57,.3,.2,.12,.37,.27,.52,.42,.15,.15,.3,.32,.39,.52,.12,.17,.22,.37,.32,.57,.07,.2,.15,.42,.2,.62,.03,.22,.05,.45,.05,.67,0,.89-.35,1.71-.99,2.35-.62,.64-1.46,.99-2.35,.99" style="fill: #60b8c2;"/>
  <path d="M590.25,162.1c0-1.86,1.51-3.34,3.34-3.34s3.34,1.48,3.34,3.34-1.49,3.34-3.34,3.34-3.34-1.51-3.34-3.34" style="fill: #60b8c2;"/>
  <path d="M590.25,145.02c0-1.86,1.51-3.34,3.34-3.34s3.34,1.49,3.34,3.34-1.49,3.34-3.34,3.34-3.34-1.51-3.34-3.34" style="fill: #60b8c2;"/>
  <path d="M461.95,267.51c-.89,0-1.73-.32-2.38-.96-.62-.62-.97-1.46-.97-2.35s.35-1.76,.97-2.37c1.24-1.24,3.49-1.24,4.73,0,.62,.62,.99,1.49,.99,2.37s-.35,1.71-.99,2.35c-.62,.64-1.46,.96-2.35,.96" style="fill: #e57f12;"/>
  <path d="M458.6,247.46c0-1.86,1.49-3.34,3.34-3.34s3.34,1.48,3.34,3.34-1.51,3.34-3.34,3.34-3.34-1.51-3.34-3.34m0-16.73c0-1.83,1.49-3.34,3.34-3.34s3.34,1.51,3.34,3.34-1.51,3.34-3.34,3.34-3.34-1.48-3.34-3.34" style="fill: #e57f12;"/>
  <path d="M461.95,217.34c-.89,0-1.73-.35-2.38-.97-.62-.64-.97-1.46-.97-2.37,0-.2,.03-.42,.07-.64,.02-.22,.1-.42,.17-.62,.1-.2,.2-.4,.32-.6,.12-.17,.25-.35,.39-.49,1.24-1.24,3.49-1.24,4.73,0,.17,.15,.3,.32,.42,.49,.12,.2,.22,.4,.32,.6,.07,.2,.15,.4,.17,.62,.05,.22,.07,.45,.07,.64,0,.92-.35,1.73-.99,2.37-.62,.62-1.46,.97-2.35,.97" style="fill: #e57f12;"/>
  <path d="M441.63,214c0-1.83,1.51-3.34,3.34-3.34s3.34,1.51,3.34,3.34-1.49,3.37-3.34,3.37-3.34-1.51-3.34-3.37m-16.95,0c0-1.83,1.51-3.34,3.34-3.34s3.34,1.51,3.34,3.34-1.48,3.37-3.34,3.37-3.34-1.51-3.34-3.37m-16.95,0c0-1.83,1.48-3.34,3.34-3.34s3.34,1.51,3.34,3.34-1.51,3.37-3.34,3.37-3.34-1.51-3.34-3.37m-16.98,0c0-1.83,1.51-3.34,3.37-3.34s3.34,1.51,3.34,3.34-1.51,3.37-3.34,3.37-3.37-1.51-3.37-3.37m-16.95,0c0-1.83,1.48-3.34,3.34-3.34s3.34,1.51,3.34,3.34-1.49,3.37-3.34,3.37-3.34-1.51-3.34-3.37m-16.95,0c0-1.83,1.51-3.34,3.34-3.34s3.34,1.51,3.34,3.34-1.49,3.37-3.34,3.37-3.34-1.51-3.34-3.37m-16.95,0c0-1.83,1.48-3.34,3.34-3.34s3.34,1.51,3.34,3.34-1.51,3.37-3.34,3.37-3.34-1.51-3.34-3.37m-16.98,0c0-1.83,1.51-3.34,3.34-3.34s3.34,1.51,3.34,3.34-1.49,3.37-3.34,3.37-3.34-1.51-3.34-3.37m-16.95,0c0-1.83,1.49-3.34,3.34-3.34s3.34,1.51,3.34,3.34-1.49,3.37-3.34,3.37-3.34-1.51-3.34-3.37m-16.95,0c0-1.83,1.49-3.34,3.34-3.34s3.34,1.51,3.34,3.34-1.51,3.37-3.34,3.37-3.34-1.51-3.34-3.37m-16.98,0c0-1.83,1.51-3.34,3.37-3.34s3.32,1.51,3.32,3.34-1.48,3.37-3.32,3.37-3.37-1.51-3.37-3.37m-16.95,0c0-1.83,1.51-3.34,3.34-3.34s3.34,1.51,3.34,3.34-1.48,3.37-3.34,3.37-3.34-1.51-3.34-3.37m-16.95,0c0-1.83,1.48-3.34,3.34-3.34s3.34,1.51,3.34,3.34-1.51,3.37-3.34,3.37-3.34-1.51-3.34-3.37m-16.95,0c0-1.83,1.49-3.34,3.34-3.34s3.34,1.51,3.34,3.34-1.51,3.37-3.34,3.37-3.34-1.51-3.34-3.37m-16.98,0c0-1.83,1.51-3.34,3.34-3.34s3.34,1.51,3.34,3.34-1.49,3.37-3.34,3.37-3.34-1.51-3.34-3.37m-16.95,0c0-1.83,1.49-3.34,3.34-3.34s3.34,1.51,3.34,3.34-1.48,3.37-3.34,3.37-3.34-1.51-3.34-3.37m-16.95,0c0-1.83,1.49-3.34,3.34-3.34s3.34,1.51,3.34,3.34-1.51,3.37-3.34,3.37-3.34-1.51-3.34-3.37m-16.98,0c0-1.83,1.51-3.34,3.34-3.34s3.34,1.51,3.34,3.34-1.49,3.37-3.34,3.37-3.34-1.51-3.34-3.37m-16.95,0c0-1.83,1.48-3.34,3.34-3.34s3.34,1.51,3.34,3.34-1.51,3.37-3.34,3.37-3.34-1.51-3.34-3.37m-16.95,0c0-1.83,1.48-3.34,3.34-3.34s3.34,1.51,3.34,3.34-1.51,3.37-3.34,3.37-3.34-1.51-3.34-3.37m-16.98,0c0-1.83,1.51-3.34,3.34-3.34s3.34,1.51,3.34,3.34-1.48,3.37-3.34,3.37-3.34-1.51-3.34-3.37m-16.95,0c0-1.83,1.51-3.34,3.34-3.34s3.34,1.51,3.34,3.34-1.49,3.37-3.34,3.37-3.34-1.51-3.34-3.37m-16.95,0c0-1.83,1.49-3.34,3.34-3.34s3.34,1.51,3.34,3.34-1.51,3.37-3.34,3.37-3.34-1.51-3.34-3.37" style="fill: #e57f12;"/>
  <path d="M54.88,217.34c-.89,0-1.73-.35-2.38-.97-.62-.64-.96-1.46-.96-2.37,0-.86,.35-1.73,.96-2.35,1.24-1.24,3.49-1.24,4.73,0,.62,.62,.96,1.48,.96,2.35,0,.92-.35,1.73-.96,2.37-.65,.62-1.46,.97-2.35,.97" style="fill: #e57f12;"/>
  <path d="M51.51,197.05c0-1.86,1.51-3.34,3.34-3.34s3.37,1.48,3.37,3.34-1.51,3.34-3.37,3.34-3.34-1.51-3.34-3.34" style="fill: #e57f12;"/>
  <path d="M51.51,180.07c0-1.83,1.51-3.34,3.34-3.34s3.37,1.51,3.37,3.34-1.51,3.34-3.37,3.34-3.34-1.49-3.34-3.34" style="fill: #e57f12;"/>
  <path d="M51.51,163.11c0-1.86,1.51-3.34,3.34-3.34s3.37,1.48,3.37,3.34-1.51,3.34-3.37,3.34-3.34-1.51-3.34-3.34" style="fill: #e57f12;"/>
  <path d="M478.4,267.51c-.45,0-.86-.07-1.29-.25-.4-.15-.77-.4-1.06-.72-.65-.64-.99-1.46-.99-2.35s.35-1.76,.96-2.37c.17-.15,.35-.3,.52-.42,.17-.1,.37-.22,.57-.3,.2-.07,.42-.15,.64-.2,.42-.07,.87-.07,1.29,0,.22,.05,.42,.12,.64,.2,.2,.07,.37,.2,.57,.3,.17,.12,.35,.27,.5,.42,.62,.62,.99,1.49,.99,2.37s-.35,1.73-.99,2.35c-.62,.64-1.46,.96-2.35,.96" style="fill: #54bdb4;"/>
  <path d="M475.06,247.22c0-1.86,1.48-3.34,3.34-3.34s3.34,1.49,3.34,3.34-1.51,3.34-3.34,3.34-3.34-1.51-3.34-3.34m0-16.98c0-1.86,1.48-3.34,3.34-3.34s3.34,1.49,3.34,3.34-1.51,3.34-3.34,3.34-3.34-1.51-3.34-3.34m0-16.98c0-1.86,1.48-3.34,3.34-3.34s3.34,1.48,3.34,3.34-1.51,3.34-3.34,3.34-3.34-1.51-3.34-3.34" style="fill: #54bdb4;"/>
  <path d="M478.4,199.62c-.89,0-1.73-.35-2.35-.99-.65-.62-.99-1.46-.99-2.35,0-.22,.02-.45,.07-.65,.02-.22,.1-.42,.17-.64,.1-.2,.2-.4,.32-.57,.12-.17,.25-.35,.39-.49,.17-.17,.33-.3,.52-.42,.17-.12,.37-.22,.57-.32,.2-.07,.42-.15,.64-.17,.42-.1,.87-.1,1.29,0,.22,.02,.42,.1,.64,.17,.2,.1,.4,.2,.57,.32,.17,.12,.35,.25,.5,.42,.17,.15,.3,.32,.42,.49,.13,.17,.22,.37,.3,.57,.1,.2,.15,.42,.2,.64,.05,.2,.07,.42,.07,.65,0,.89-.35,1.73-.99,2.35-.62,.64-1.46,.99-2.35,.99" style="fill: #54bdb4;"/>
  <path d="M458.08,196.28c0-1.86,1.51-3.34,3.34-3.34s3.34,1.49,3.34,3.34-1.48,3.34-3.34,3.34-3.34-1.51-3.34-3.34m-16.95,0c0-1.86,1.48-3.34,3.34-3.34s3.34,1.49,3.34,3.34-1.51,3.34-3.34,3.34-3.34-1.51-3.34-3.34m-16.98,0c0-1.86,1.51-3.34,3.34-3.34s3.34,1.49,3.34,3.34-1.48,3.34-3.34,3.34-3.34-1.51-3.34-3.34m-16.95,0c0-1.86,1.48-3.34,3.34-3.34s3.34,1.49,3.34,3.34-1.51,3.34-3.34,3.34-3.34-1.51-3.34-3.34m-16.98,0c0-1.86,1.49-3.34,3.34-3.34s3.34,1.49,3.34,3.34-1.48,3.34-3.34,3.34-3.34-1.51-3.34-3.34m-16.98,0c0-1.86,1.51-3.34,3.37-3.34s3.31,1.49,3.31,3.34-1.48,3.34-3.31,3.34-3.37-1.51-3.37-3.34m-16.95,0c0-1.86,1.51-3.34,3.34-3.34s3.34,1.49,3.34,3.34-1.48,3.34-3.34,3.34-3.34-1.51-3.34-3.34m-16.95,0c0-1.86,1.49-3.34,3.32-3.34s3.34,1.49,3.34,3.34-1.48,3.34-3.34,3.34-3.32-1.51-3.32-3.34m-16.98,0c0-1.86,1.48-3.34,3.34-3.34s3.34,1.49,3.34,3.34-1.51,3.34-3.34,3.34-3.34-1.51-3.34-3.34m-16.98,0c0-1.86,1.51-3.34,3.34-3.34s3.34,1.49,3.34,3.34-1.49,3.34-3.34,3.34-3.34-1.51-3.34-3.34m-16.95,0c0-1.86,1.48-3.34,3.34-3.34s3.34,1.49,3.34,3.34-1.51,3.34-3.34,3.34-3.34-1.51-3.34-3.34m-16.98,0c0-1.86,1.51-3.34,3.34-3.34s3.34,1.49,3.34,3.34-1.49,3.34-3.34,3.34-3.34-1.51-3.34-3.34m-16.95,0c0-1.86,1.49-3.34,3.34-3.34s3.34,1.49,3.34,3.34-1.51,3.34-3.34,3.34-3.34-1.51-3.34-3.34" style="fill: #54bdb4;"/>
  <path d="M240.85,199.62c-.45,0-.87-.1-1.26-.25-.42-.17-.79-.42-1.09-.74-.64-.62-.99-1.46-.99-2.35,0-.22,.02-.45,.07-.65,.05-.22,.1-.44,.2-.64,.07-.2,.17-.4,.3-.57,.12-.17,.27-.35,.42-.49,.15-.17,.32-.3,.5-.42,.2-.12,.37-.22,.59-.32,.2-.07,.4-.15,.62-.17,.42-.1,.87-.1,1.31,0,.2,.02,.42,.1,.62,.17,.2,.1,.4,.2,.57,.32,.2,.12,.35,.25,.52,.42,.15,.15,.3,.32,.39,.49,.12,.17,.22,.37,.32,.57,.07,.22,.15,.42,.2,.64,.02,.2,.05,.42,.05,.65,0,.89-.35,1.73-.96,2.35-.65,.64-1.49,.99-2.38,.99" style="fill: #54bdb4;"/>
  <path d="M237.51,179.35c0-1.83,1.51-3.32,3.34-3.32s3.34,1.49,3.34,3.32-1.49,3.37-3.34,3.37-3.34-1.51-3.34-3.37" style="fill: #54bdb4;"/>
  <path d="M237.51,162.45c0-1.86,1.51-3.34,3.34-3.34s3.34,1.49,3.34,3.34-1.49,3.34-3.34,3.34-3.34-1.48-3.34-3.34" style="fill: #54bdb4;"/>
  <path d="M237.51,145.54c0-1.86,1.51-3.34,3.34-3.34s3.34,1.49,3.34,3.34-1.49,3.34-3.34,3.34-3.34-1.51-3.34-3.34" style="fill: #54bdb4;"/>
  <path d="M493.95,267.51c-.45,0-.86-.07-1.29-.25-.4-.15-.77-.4-1.07-.72-.64-.62-.99-1.46-.99-2.35s.35-1.76,.96-2.37c.17-.15,.32-.3,.52-.42,.17-.1,.37-.22,.57-.3,.2-.07,.42-.15,.62-.2,1.09-.2,2.25,.15,3.02,.92,.62,.62,.99,1.49,.99,2.37s-.35,1.73-.99,2.35c-.62,.64-1.46,.96-2.35,.96" style="fill: #84539e;"/>
  <path d="M490.61,247.19c0-1.86,1.48-3.34,3.34-3.34s3.34,1.48,3.34,3.34-1.51,3.34-3.34,3.34-3.34-1.51-3.34-3.34m0-17c0-1.85,1.48-3.34,3.34-3.34s3.34,1.48,3.34,3.34-1.51,3.34-3.34,3.34-3.34-1.51-3.34-3.34m0-17c0-1.85,1.48-3.34,3.34-3.34s3.34,1.49,3.34,3.34-1.51,3.34-3.34,3.34-3.34-1.51-3.34-3.34m0-17c0-1.86,1.48-3.34,3.34-3.34s3.34,1.49,3.34,3.34-1.51,3.34-3.34,3.34-3.34-1.51-3.34-3.34" style="fill: #84539e;"/>
  <path d="M493.95,182.52c-.89,0-1.73-.35-2.35-.99-.32-.32-.57-.67-.74-1.09-.17-.4-.25-.82-.25-1.26,0-.89,.35-1.76,.96-2.37,.17-.15,.32-.3,.52-.42,.17-.1,.37-.22,.57-.3,.2-.07,.42-.15,.64-.2,1.06-.2,2.23,.15,3,.92,.62,.62,.99,1.48,.99,2.37,0,.45-.1,.86-.25,1.26-.17,.42-.42,.77-.74,1.09-.3,.32-.67,.57-1.09,.72-.39,.17-.82,.27-1.26,.27" style="fill: #84539e;"/>
  <path d="M473.75,179.18c0-1.86,1.51-3.34,3.37-3.34s3.34,1.49,3.34,3.34-1.51,3.34-3.34,3.34-3.37-1.51-3.37-3.34m-16.83,0c0-1.86,1.51-3.34,3.34-3.34s3.34,1.49,3.34,3.34-1.48,3.34-3.34,3.34-3.34-1.51-3.34-3.34m-16.83,0c0-1.86,1.48-3.34,3.34-3.34s3.34,1.49,3.34,3.34-1.49,3.34-3.34,3.34-3.34-1.51-3.34-3.34m-16.83,0c0-1.86,1.48-3.34,3.34-3.34s3.34,1.49,3.34,3.34-1.51,3.34-3.34,3.34-3.34-1.51-3.34-3.34" style="fill: #84539e;"/>
  <path d="M409.77,182.52c-.89,0-1.73-.35-2.38-.99-.62-.62-.96-1.46-.96-2.35,0-.22,.02-.45,.05-.67,.05-.2,.12-.42,.2-.62,.07-.2,.2-.4,.3-.57,.12-.2,.27-.37,.42-.52,.77-.77,1.93-1.12,3.02-.92,.22,.05,.42,.12,.62,.2,.2,.07,.4,.2,.57,.3,.2,.12,.37,.27,.52,.42,.15,.15,.3,.32,.42,.52,.12,.17,.22,.37,.3,.57,.1,.2,.15,.42,.2,.62,.05,.22,.07,.45,.07,.67,0,.89-.35,1.73-.99,2.35-.62,.64-1.46,.99-2.35,.99" style="fill: #84539e;"/>
  <path d="M406.43,162.1c0-1.83,1.48-3.34,3.34-3.34s3.34,1.51,3.34,3.34-1.51,3.34-3.34,3.34-3.34-1.49-3.34-3.34m0-17.08c0-1.83,1.48-3.34,3.34-3.34s3.34,1.51,3.34,3.34-1.51,3.34-3.34,3.34-3.34-1.48-3.34-3.34" style="fill: #84539e;"/>
  <path d="M409.77,131.28c-.89,0-1.73-.35-2.38-.96-.62-.64-.96-1.48-.96-2.38,0-.22,.02-.42,.05-.64,.05-.22,.12-.42,.2-.62,.07-.22,.2-.4,.3-.6,.12-.17,.27-.34,.42-.49,.15-.15,.32-.3,.52-.42,.17-.12,.37-.22,.57-.3,.2-.1,.42-.15,.62-.2,.45-.1,.89-.1,1.31,0,.22,.05,.42,.1,.62,.2,.2,.07,.4,.17,.6,.3,.17,.12,.35,.27,.5,.42,.62,.62,.99,1.49,.99,2.35s-.35,1.73-.99,2.38c-.32,.3-.67,.54-1.09,.72-.4,.17-.82,.25-1.26,.25" style="fill: #84539e;"/>
  <path d="M428.21,29.99h-37.24l-24.15,24.14,2.66,37.23,24.93,24.93,21.31-18.64,33.9-5.21,2.74-38.3-24.15-24.14Zm-1.04,.01c1.39,0,2.51,1.12,2.51,2.51s-1.12,2.51-2.51,2.51-2.51-1.12-2.51-2.51,1.12-2.51,2.51-2.51m-35.15,0c1.38,0,2.51,1.12,2.51,2.51s-1.12,2.51-2.51,2.51-2.51-1.12-2.51-2.51,1.12-2.51,2.51-2.51m1.04,5.03h33.06l21.04,21.04-2.29,31.99-31.37,4.82-18.86,16.5-20.26-20.26-2.36-33.06,21.04-21.04Zm-26.15,20.07c0-1.39,1.12-2.51,2.51-2.51s2.51,1.12,2.51,2.51-1.12,2.51-2.51,2.51-2.51-1.12-2.51-2.51m5.02,37.66c-1.39,0-2.51-1.12-2.51-2.51s1.12-2.51,2.51-2.51,2.51,1.12,2.51,2.51-1.12,2.51-2.51,2.51m22.59,22.6c-1.39,0-2.51-1.12-2.51-2.51s1.12-2.51,2.51-2.51,2.51,1.12,2.51,2.51-1.12,2.51-2.51,2.51m20.08-17.57c-1.39,0-2.51-1.12-2.51-2.51s1.12-2.51,2.51-2.51,2.51,1.12,2.51,2.51-1.12,2.51-2.51,2.51m32.64-5.02c-1.39,0-2.51-1.12-2.51-2.51s1.12-2.51,2.51-2.51,2.51,1.12,2.51,2.51-1.12,2.51-2.51,2.51m2.51-35.15c-1.39,0-2.51-1.12-2.51-2.51s1.12-2.51,2.51-2.51,2.51,1.12,2.51,2.51-1.12,2.51-2.51,2.51" style="fill: #ef8019;"/>
  <path d="M444.73,90.25c0-1.19,.85-2.14,1.96-2.4l-12.49-13.06,15.11-17.27c-.9-.17-1.62-.79-1.91-1.65l-14.95,17.09-21.12-22.08,15.28-15.97c-.89-.21-1.58-.86-1.82-1.74l-15.2,15.89-15.2-15.89c-.3,1.06-1.22,1.85-2.38,1.85-.44,0-.83-.14-1.19-.34l.91,29.12-19.86-8.97c.01,.1,.06,.18,.06,.28,0,.85-.45,1.57-1.1,2.02l20.99,9.48,.03,1-19.37,20.25c1.11,.26,1.96,1.21,1.96,2.4,0,.57-.23,1.08-.55,1.5l18.78,2.21,.52,16.8c.39-.25,.83-.43,1.33-.43,.44,0,.83,.14,1.19,.34l-.51-16.42,17.11,2.01c-.13-.31-.21-.64-.21-1,0-.57,.23-1.08,.55-1.5l-17.52-2.06-.72-23.13,.54-.57,29.99,13.54-9.88,11.29c.91,.17,1.63,.79,1.91,1.65l10.37-11.85,17.46,7.88c-.01-.1-.06-.18-.06-.28m-70.14-.96l17.37-18.16,.63,20.28-18-2.12Zm19.77-24.31l-.07-.03-.91-29.19,14.46,15.12-13.48,14.1Zm32.31,14.59l-29.87-13.49,12.79-13.37,21.2,22.16-4.12,4.71Zm2.4,1.09l3.47-3.96,9.31,9.73-12.77-5.77Z" style="fill: #84539e;"/>
  <path d="M369.42,52.59c1.38,0,2.51,1.12,2.51,2.51s-1.12,2.51-2.51,2.51-2.51-1.12-2.51-2.51,1.12-2.51,2.51-2.51m0-2.52c-2.78,0-5.03,2.26-5.03,5.03s2.26,5.03,5.03,5.03,5.03-2.26,5.03-5.03-2.26-5.03-5.03-5.03m22.59-20.07c1.39,0,2.51,1.12,2.51,2.51s-1.12,2.51-2.51,2.51-2.51-1.12-2.51-2.51,1.12-2.51,2.51-2.51m0-2.52c-2.78,0-5.03,2.26-5.03,5.03s2.26,5.03,5.03,5.03,5.03-2.26,5.03-5.03-2.26-5.03-5.03-5.03m35.15,2.52c1.39,0,2.51,1.12,2.51,2.51s-1.12,2.51-2.51,2.51-2.51-1.12-2.51-2.51,1.12-2.51,2.51-2.51m0-2.52c-2.78,0-5.03,2.26-5.03,5.03s2.26,5.03,5.03,5.03,5.03-2.26,5.03-5.03-2.26-5.03-5.03-5.03m22.59,25.12c1.39,0,2.51,1.12,2.51,2.51s-1.12,2.51-2.51,2.51-2.51-1.12-2.51-2.51,1.12-2.51,2.51-2.51m0-2.52c-2.77,0-5.03,2.26-5.03,5.03s2.26,5.03,5.03,5.03,5.03-2.26,5.03-5.03-2.26-5.03-5.03-5.03m-2.51,37.67c1.39,0,2.51,1.12,2.51,2.51s-1.12,2.51-2.51,2.51-2.51-1.12-2.51-2.51,1.12-2.51,2.51-2.51m0-2.52c-2.78,0-5.03,2.26-5.03,5.03s2.26,5.03,5.03,5.03,5.03-2.26,5.03-5.03-2.26-5.03-5.03-5.03m-32.64,7.54c1.39,0,2.51,1.12,2.51,2.51s-1.12,2.51-2.51,2.51-2.51-1.12-2.51-2.51,1.12-2.51,2.51-2.51m0-2.52c-2.77,0-5.03,2.26-5.03,5.03s2.26,5.03,5.03,5.03,5.03-2.26,5.03-5.03-2.26-5.03-5.03-5.03m-20.08,20.09c1.39,0,2.51,1.12,2.51,2.51s-1.12,2.51-2.51,2.51-2.51-1.12-2.51-2.51,1.12-2.51,2.51-2.51m0-2.52c-2.77,0-5.03,2.26-5.03,5.03s2.26,5.03,5.03,5.03,5.03-2.26,5.03-5.03-2.26-5.03-5.03-5.03m-22.59-20.07c1.39,0,2.51,1.12,2.51,2.51s-1.12,2.51-2.51,2.51-2.51-1.12-2.51-2.51,1.12-2.51,2.51-2.51m0-2.52c-2.78,0-5.03,2.26-5.03,5.03s2.26,5.03,5.03,5.03,5.03-2.26,5.03-5.03-2.26-5.03-5.03-5.03" style="fill: #84539e;"/>
  <path d="M689.8,108.14c-4.7,0-8.53-3.83-8.53-8.53s3.83-8.53,8.53-8.53,8.53,3.83,8.53,8.53-3.83,8.53-8.53,8.53m0-11.85c-1.83,0-3.32,1.49-3.32,3.32s1.49,3.32,3.32,3.32,3.32-1.49,3.32-3.32-1.49-3.32-3.32-3.32" style="fill: #040000;"/>
  <path d="M725.26,108.14c-4.7,0-8.53-3.83-8.53-8.53s3.83-8.53,8.53-8.53,8.52,3.83,8.52,8.53-3.82,8.53-8.52,8.53m0-11.85c-1.83,0-3.32,1.49-3.32,3.32s1.49,3.32,3.32,3.32,3.32-1.49,3.32-3.32-1.49-3.32-3.32-3.32" style="fill: #040000;"/>
  <path d="M812.16,108.14c-4.7,0-8.53-3.83-8.53-8.53s3.83-8.53,8.53-8.53,8.53,3.83,8.53,8.53-3.83,8.53-8.53,8.53m0-11.85c-1.83,0-3.32,1.49-3.32,3.32s1.49,3.32,3.32,3.32,3.32-1.49,3.32-3.32-1.49-3.32-3.32-3.32" style="fill: #040000;"/>
  <path d="M833.54,108.14c-4.7,0-8.53-3.83-8.53-8.53s3.83-8.53,8.53-8.53,8.53,3.83,8.53,8.53-3.83,8.53-8.53,8.53m0-11.85c-1.83,0-3.32,1.49-3.32,3.32s1.49,3.32,3.32,3.32,3.32-1.49,3.32-3.32-1.49-3.32-3.32-3.32" style="fill: #040000;"/>
  <path d="M705.31,88.13h-31.82l8.65-31.9h23.17v31.9Zm-25.01-5.21h19.81v-21.49h-13.98l-5.83,21.49Z" style="fill: #040000;"/>
  <path d="M850.34,88.13h-140.91V37.21h140.91v50.92Zm-135.7-5.21h130.49V42.42h-130.49v40.51Z" style="fill: #58479a;"/>
  <path d="M524.96,267.51c-.45,0-.87-.07-1.29-.25-.39-.15-.77-.4-1.06-.72-.64-.64-.99-1.46-.99-2.35s.35-1.76,.97-2.37c.17-.15,.35-.3,.52-.42,.17-.1,.37-.22,.57-.3,.2-.07,.42-.15,.64-.2,.42-.07,.87-.07,1.29,0,.22,.05,.42,.12,.64,.2,.2,.07,.4,.2,.57,.3,.17,.12,.35,.27,.5,.42,.64,.62,.99,1.49,.99,2.37s-.35,1.73-.99,2.35c-.62,.64-1.46,.96-2.35,.96" style="fill: #58479a;"/>
  <path d="M521.62,247.22c0-1.86,1.49-3.34,3.34-3.34s3.34,1.49,3.34,3.34-1.48,3.34-3.34,3.34-3.34-1.51-3.34-3.34m0-16.98c0-1.86,1.49-3.34,3.34-3.34s3.34,1.49,3.34,3.34-1.48,3.34-3.34,3.34-3.34-1.51-3.34-3.34m0-16.98c0-1.86,1.49-3.34,3.34-3.34s3.34,1.48,3.34,3.34-1.48,3.34-3.34,3.34-3.34-1.51-3.34-3.34" style="fill: #58479a;"/>
  <path d="M524.96,199.62c-.89,0-1.73-.35-2.35-.99-.64-.62-.99-1.46-.99-2.35s.35-1.73,.99-2.37c1.21-1.24,3.47-1.24,4.71,0,.64,.64,.99,1.51,.99,2.37s-.35,1.73-.99,2.35c-.3,.32-.67,.57-1.07,.74-.42,.15-.84,.25-1.29,.25" style="fill: #58479a;"/>
  <path d="M742.19,196.28c0-1.86,1.51-3.34,3.34-3.34s3.34,1.49,3.34,3.34-1.48,3.34-3.34,3.34-3.34-1.51-3.34-3.34m-16.98,0c0-1.86,1.51-3.34,3.37-3.34s3.34,1.49,3.34,3.34-1.51,3.34-3.34,3.34-3.37-1.51-3.37-3.34m-16.95,0c0-1.86,1.49-3.34,3.34-3.34s3.34,1.49,3.34,3.34-1.51,3.34-3.34,3.34-3.34-1.51-3.34-3.34m-16.98,0c0-1.86,1.51-3.34,3.36-3.34s3.32,1.49,3.32,3.34-1.48,3.34-3.32,3.34-3.36-1.51-3.36-3.34m-16.96,0c0-1.86,1.49-3.34,3.34-3.34s3.34,1.49,3.34,3.34-1.51,3.34-3.34,3.34-3.34-1.51-3.34-3.34m-16.98,0c0-1.86,1.51-3.34,3.34-3.34s3.34,1.49,3.34,3.34-1.48,3.34-3.34,3.34-3.34-1.51-3.34-3.34m-16.96,0c0-1.86,1.49-3.34,3.34-3.34s3.34,1.49,3.34,3.34-1.51,3.34-3.34,3.34-3.34-1.51-3.34-3.34m-16.98,0c0-1.86,1.51-3.34,3.34-3.34s3.34,1.49,3.34,3.34-1.48,3.34-3.34,3.34-3.34-1.51-3.34-3.34m-16.96,0c0-1.86,1.49-3.34,3.34-3.34s3.34,1.49,3.34,3.34-1.51,3.34-3.34,3.34-3.34-1.51-3.34-3.34m-16.98,0c0-1.86,1.51-3.34,3.34-3.34s3.34,1.49,3.34,3.34-1.48,3.34-3.34,3.34-3.34-1.51-3.34-3.34m-16.95,0c0-1.86,1.49-3.34,3.34-3.34s3.34,1.49,3.34,3.34-1.51,3.34-3.34,3.34-3.34-1.51-3.34-3.34m-16.98,0c0-1.86,1.51-3.34,3.34-3.34s3.34,1.49,3.34,3.34-1.48,3.34-3.34,3.34-3.34-1.51-3.34-3.34m-16.98,0c0-1.86,1.51-3.34,3.34-3.34s3.37,1.49,3.37,3.34-1.51,3.34-3.37,3.34-3.34-1.51-3.34-3.34" style="fill: #58479a;"/>
  <path d="M762.51,199.62c-.91,0-1.73-.35-2.38-.99-.62-.62-.96-1.46-.96-2.35s.35-1.73,.96-2.37c1.24-1.24,3.49-1.24,4.73,0,.15,.17,.3,.32,.42,.52,.12,.17,.22,.37,.3,.57,.1,.2,.15,.42,.2,.64,.05,.2,.05,.42,.05,.65,0,.89-.35,1.73-.97,2.35-.62,.64-1.46,.99-2.35,.99" style="fill: #58479a;"/>
  <path d="M759.17,179.33c0-1.86,1.48-3.34,3.34-3.34s3.34,1.48,3.34,3.34-1.51,3.32-3.34,3.32-3.34-1.48-3.34-3.32m0-16.98c0-1.83,1.48-3.34,3.34-3.34s3.34,1.51,3.34,3.34-1.51,3.34-3.34,3.34-3.34-1.48-3.34-3.34m0-16.96c0-1.86,1.48-3.34,3.34-3.34s3.34,1.48,3.34,3.34-1.51,3.34-3.34,3.34-3.34-1.51-3.34-3.34" style="fill: #58479a;"/>
  <path d="M759.17,128.44c0-1.86,1.48-3.34,3.34-3.34s3.34,1.48,3.34,3.34-1.51,3.32-3.34,3.32-3.34-1.48-3.34-3.32" style="fill: #58479a;"/>
  <path d="M759.17,111.46c0-1.83,1.48-3.34,3.34-3.34s3.34,1.51,3.34,3.34-1.51,3.34-3.34,3.34-3.34-1.48-3.34-3.34" style="fill: #58479a;"/>
  <polygon points="563.43 461.24 570.11 461.24 567.07 385.91 520.83 367.59 520.83 374.77 560.57 390.52 563.43 461.24" style="fill: #040000;"/>
  <polygon points="448.21 461.24 451.07 390.52 489.89 375.14 489.89 367.95 444.56 385.91 441.52 461.24 448.21 461.24" style="fill: #040000;"/>
  <rect x="501.69" y="389.52" width="6.68" height="71.73" style="fill: #15a17d;"/>
  <polygon points="469.66 461.24 476.35 461.24 477.21 432.36 469.6 402.61 463.13 404.27 470.51 433.1 469.66 461.24" style="fill: #040000;"/>
  <polygon points="541.48 461.24 539.57 433.04 546.93 404.27 540.45 402.61 532.83 432.42 534.78 461.24 541.48 461.24" style="fill: #040000;"/>
  <rect x="10.08" y="468.08" width="978.55" height="6.83" style="fill: #54bdb4;"/>
  <text transform="translate(140.43 320.78)" style="fill: #040000; font-size: 18.72px;"><tspan x="0" y="0" style="font-weight: bold;">コストを月額化したい</tspan></text>
  <text transform="translate(46.95 361.95)" style="fill: #040000; font-size: 18.72px;"><tspan x="0" y="0" style="font-weight: bold;">セキュリティのリスクは避けたい</tspan></text>
  <text transform="translate(122.6 403.13)" style="fill: #040000; font-size: 18.72px;"><tspan x="0" y="0" style="font-weight: bold;">運用の工数は削減したい</tspan></text>
  <text transform="translate(679.12 320.78)" style="fill: #040000; font-size: 18.72px;"><tspan x="0" y="0" style="font-weight: bold;">社内システムと連携したい</tspan></text>
  <text transform="translate(678.37 361.95)" style="fill: #040000; font-size: 18.72px;"><tspan x="0" y="0" style="font-weight: bold;">すぐに利用開始したい</tspan></text>
  <text transform="translate(678.74 403.13)" style="fill: #040000; font-size: 18.72px;"><tspan x="0" y="0" style="font-weight: bold;">サーバーをカスタマイズしたい</tspan></text>
  <g>
    <path d="M34.25,68.54c-10.55,0-18.21-4.21-18.21-10s7.66-10,18.21-10,18.21,4.2,18.21,10-7.66,10-18.21,10m0-13.85c-7.91,0-12.05,2.86-12.05,3.85s4.15,3.85,12.05,3.85,12.05-2.86,12.05-3.85-4.15-3.85-12.05-3.85" style="fill: #f08300;"/>
    <path d="M34.25,89.06c-8.87,0-15.21-2.64-17.92-5.41v8.35c4.62,2.44,10.85,3.91,17.92,3.91s13.15-1.43,17.76-3.82v-8.27c-2.8,2.72-9.05,5.25-17.76,5.25" style="fill: #f08300;"/>
    <path d="M52,106.28v-8.27c-2.8,2.72-9.05,5.25-17.76,5.25s-15.21-2.64-17.92-5.41v8.35c4.62,2.44,10.85,3.91,17.92,3.91s13.15-1.43,17.76-3.82" style="fill: #f08300;"/>
    <path d="M34.25,74.87c-8.87,0-15.21-2.64-17.92-5.41v8.35c4.62,2.44,10.85,3.91,17.92,3.91s13.15-1.43,17.76-3.82v-8.27c-2.8,2.72-9.05,5.25-17.76,5.25" style="fill: #f08300;"/>
    <path d="M52,120.47v-8.27c-2.8,2.72-9.05,5.25-17.76,5.25s-15.21-2.64-17.92-5.41v8.35c4.62,2.44,10.85,3.91,17.92,3.91s13.15-1.43,17.76-3.82" style="fill: #f08300;"/>
    <path d="M73.85,40.15c-10.55,0-18.21-4.21-18.21-10s7.66-10,18.21-10,18.21,4.21,18.21,10-7.66,10-18.21,10m0-13.85c-7.91,0-12.05,2.86-12.05,3.85s4.15,3.85,12.05,3.85,12.05-2.86,12.05-3.85-4.15-3.85-12.05-3.85" style="fill: #f08300;"/>
    <path d="M73.85,60.68c-8.87,0-15.21-2.64-17.92-5.41v8.35c4.62,2.44,10.85,3.91,17.92,3.91s13.15-1.43,17.76-3.82v-8.27c-2.8,2.72-9.05,5.25-17.76,5.25" style="fill: #f08300;"/>
    <path d="M91.6,77.89v-8.27c-2.8,2.72-9.05,5.25-17.76,5.25s-15.21-2.64-17.92-5.41v8.35c4.63,2.45,10.85,3.91,17.92,3.91s13.15-1.43,17.76-3.82" style="fill: #f08300;"/>
    <path d="M73.85,46.49c-8.87,0-15.21-2.64-17.92-5.41v8.35c4.62,2.44,10.85,3.91,17.92,3.91s13.15-1.43,17.76-3.82v-8.27c-2.8,2.72-9.05,5.25-17.76,5.25" style="fill: #f08300;"/>
    <path d="M91.6,92.08v-8.27c-2.8,2.72-9.05,5.25-17.76,5.25s-15.21-2.64-17.92-5.41v8.35c4.63,2.45,10.85,3.91,17.92,3.91s13.15-1.43,17.76-3.82" style="fill: #f08300;"/>
    <path d="M91.6,106.28v-8.27c-2.8,2.72-9.05,5.25-17.76,5.25s-15.21-2.64-17.92-5.41v8.35c4.63,2.44,10.85,3.91,17.92,3.91s13.15-1.43,17.76-3.82" style="fill: #f08300;"/>
    <path d="M91.6,120.47v-8.27c-2.8,2.72-9.05,5.25-17.76,5.25s-15.21-2.64-17.92-5.41v8.35c4.63,2.44,10.85,3.91,17.92,3.91s13.15-1.43,17.76-3.82" style="fill: #f08300;"/>
  </g>
  <path d="M51.51,146.16c0-1.86,1.51-3.34,3.34-3.34s3.37,1.48,3.37,3.34-1.51,3.34-3.37,3.34-3.34-1.51-3.34-3.34" style="fill: #e57f12;"/>
</svg>
