<?xml version="1.0" encoding="UTF-8"?>
<svg id="_イヤー_1" data-name="レイヤー 1" xmlns="http://www.w3.org/2000/svg" width="329.04" height="312.36" viewBox="0 0 329.04 312.36">
  <path d="M319.01,52.12H65.29V10.9h253.72V52.12Zm1.36-42.58H63.93V53.48H320.37V9.54Z" style="fill: #60b9c2;"/>
  <path d="M319.01,253.18H65.29v-41.22h253.72v41.22Zm1.36-42.58H63.93v43.94H320.37v-43.94Z" style="fill: #004e64;"/>
  <path d="M319.01,301.99H65.29v-41.22h253.72v41.22Zm1.36-42.58H63.93v43.94H320.37v-43.94Z" style="fill: #004e64;"/>
  <path d="M319.01,103.84H65.29V62.62h253.72v41.22Zm1.36-42.58H63.93v43.94H320.37V61.26Z" style="fill: #4e4a94;"/>
  <path d="M319.01,152.65H65.29v-41.22h253.72v41.22Zm1.36-42.58H63.93v43.94H320.37v-43.94Z" style="fill: #4e4a94;"/>
  <path d="M319.01,201.46H65.29v-41.22h253.72v41.22Zm1.36-42.58H63.93v43.94H320.37v-43.94Z" style="fill: #4e4a94;"/>
  <text transform="translate(125.46 38.2)" style="fill: #040000; font-size: 18.72px;"><tspan x="0" y="0" style="font-weight: bold;">コストの月額化</tspan></text>
  <text transform="translate(118.96 239.26)" style="fill: #040000; font-size: 18.72px;"><tspan x="0" y="0" style="font-weight: bold;">フルカスタマイズ</tspan></text>
  <text transform="translate(122.18 287.49)" style="fill: #040000; font-size: 18.72px;"><tspan x="0" y="0" style="font-weight: bold;">5営業日の短納期</tspan></text>
  <text transform="translate(137.51 89.92)" style="fill: #040000; font-size: 18.72px;"><tspan x="0" y="0" style="font-weight: bold;">セキュリティ</tspan></text>
  <text transform="translate(100.42 138.72)" style="fill: #040000; font-size: 18.72px;"><tspan x="0" y="0" style="font-weight: bold;">運用自動化・予兆検知</tspan></text>
  <text transform="translate(100.42 187.53)" style="fill: #040000; font-size: 18.72px;"><tspan x="0" y="0" style="font-weight: bold;">社内システムとの連携</tspan></text>
  <rect x="10.08" y="9.54" width="59.38" height="43.94" style="fill: #62c3cd;"/>
  <path d="M52.87,23.4c-.48-3.79-3.7-6.72-7.62-6.72h-6.02c-3.87,0-7.06,2.86-7.6,6.58h-3.37c-4.53,0-8.23,3.7-8.23,8.25,0,4.2,3.16,7.67,7.21,8.18,.51,3.75,3.72,6.65,7.6,6.65h6.04c3.85,0,7.04-2.86,7.59-6.58h2.83c4.53,0,8.21-3.7,8.21-8.24,0-3.97-2.85-7.36-6.63-8.11m-1.58,14.15h-12.62v2.2h7.57c-.51,2.5-2.71,4.39-5.36,4.39h-6.04c-3.03,0-5.48-2.47-5.48-5.5v-1.1h-1.1c-3.32,0-6.02-2.72-6.02-6.04s2.7-6.04,6.02-6.04h12.62v-2.21h-7.03c.51-2.5,2.73-4.39,5.38-4.39h6.02c3.03,0,5.48,2.47,5.48,5.5v1.02l1.02,.08c3.13,.23,5.56,2.9,5.56,6.04,0,3.32-2.7,6.04-6.02,6.04" style="fill: #fff;"/>
  <rect x="10.08" y="61.26" width="59.38" height="141.57" style="fill: #524d9e;"/>
  <path d="M26.66,123.62h5.61v-5.61h-5.61v5.61Zm1.87-3.74h1.87v1.87h-1.87v-1.87Z" style="fill: #fff;"/>
  <path d="M22.92,114.26v35.56H56.61v-35.56H22.92Zm31.82,33.69H24.79v-9.36h29.94v9.36Zm0-11.23H24.79v-9.36h29.94v9.36Zm-29.94-20.59h29.94v9.36H24.79v-9.36Z" style="fill: #fff;"/>
  <rect x="35.09" y="119.87" width="16.84" height="1.87" style="fill: #fff;"/>
  <path d="M32.28,129.23h-5.61v5.61h5.61v-5.61Zm-1.87,3.74h-1.87v-1.87h1.87v1.87Z" style="fill: #fff;"/>
  <rect x="35.09" y="131.1" width="16.84" height="1.87" style="fill: #fff;"/>
  <path d="M32.28,140.46h-5.61v5.61h5.61v-5.61Zm-1.87,3.74h-1.87v-1.87h1.87v1.87Z" style="fill: #fff;"/>
  <rect x="35.09" y="142.33" width="16.84" height="1.87" style="fill: #fff;"/>
  <rect x="10.08" y="210.6" width="59.38" height="92.75" style="fill: #005167;"/>
  <polygon points="53.84 264.75 59 245.18 56.87 244.69 52.13 262.73 31.69 262.73 25.05 239.18 20.52 239.18 20.52 241.53 23.37 241.53 30.02 264.75 53.84 264.75" style="fill: #fff;"/>
  <path d="M33.62,267.03c-2.14,0-3.87,1.73-3.87,3.87s1.74,3.87,3.87,3.87,3.87-1.73,3.87-3.87-1.74-3.87-3.87-3.87m0,5.52c-.92,0-1.66-.74-1.66-1.66s.74-1.66,1.66-1.66,1.66,.74,1.66,1.66-.74,1.66-1.66,1.66" style="fill: #fff;"/>
  <path d="M50.2,267.03c-2.12,0-3.85,1.72-3.85,3.84s1.73,3.84,3.85,3.84,3.85-1.73,3.85-3.84-1.73-3.84-3.85-3.84m0,5.48c-.9,0-1.64-.73-1.64-1.63s.74-1.63,1.64-1.63,1.64,.73,1.64,1.63-.74,1.63-1.64,1.63" style="fill: #fff;"/>
  <path d="M28.94,244.9l4.41,15.48h17.07l4.08-15.48H28.94Zm11.8,2.02h4.38v4.71h-4.38v-4.71Zm4.38,11.1h-4.38v-4.37h4.38v4.37Zm2.36-11.1h4.15l-1.16,4.71h-2.99v-4.71Zm-9.1,0v4.71h-5.25l-1.26-4.71h6.51Zm-4.62,6.73h4.62v4.37h-3.36l-1.26-4.37Zm13.72,4.37v-4.37h2.41l-1.17,4.37h-1.24Z" style="fill: #fff;"/>
</svg>
